<svg xmlns="http://www.w3.org/2000/svg" viewBox="0 0 925.73 255.22">
  <defs>
    <style>
      .a{fill:#241705}.b{fill:#1a1604}.c{fill:#b92b33}.d{fill:#d22b3a}.e{fill:#261908}.f{fill:#32220f}.g{fill:#d42b3a}
    </style>
  </defs>
  <path d="M11.6 118.56q4.59 0 6.9 2.1a7.1 7.1 0 0 1 2.3 5.5 7.57 7.57 0 0 1-1.8 5.1 6 6 0 0 1-4.8 2.1 6.56 6.56 0 0 1-2.3-.5 3.6 3.6 0 0 1-1.9-1.5 11.87 11.87 0 0 0-2.9 5.8 35.32 35.32 0 0 0-.7 7.2 21.35 21.35 0 0 0 2.5 10 25.11 25.11 0 0 0 7.2 8.4 38.41 38.41 0 0 0 11.3 5.8 46.12 46.12 0 0 0 14.65 2.25q13.59 0 23-6.2a49 49 0 0 0 15.2-15.9 71.94 71.94 0 0 0 8.4-21.5 116.52 116.52 0 0 0 2.8-22.8 149 149 0 0 1 3.5-32 80.35 80.35 0 0 1 9.4-24.1 44.43 44.43 0 0 1 15.2-15.3 40.14 40.14 0 0 1 20.9-5.4q10.59 0 17.2 5.1a16 16 0 0 1 6.6 13.3c0 4.26-1.5 7.47-4.5 9.6a18 18 0 0 1-10.7 3.2 31.26 31.26 0 0 0 3.3-6.6 25 25 0 0 0 1.1-8q0-7.2-4.2-10.7a15.15 15.15 0 0 0-10-3.5 26.64 26.64 0 0 0-13.3 3.1 28.22 28.22 0 0 0-9.3 8.5 45.83 45.83 0 0 0-6.1 12.6 112.62 112.62 0 0 0-3.7 15.3q-1.41 8.1-2.1 16.7t-1.3 17q-1.41 20.6-7.3 34.1t-14.55 21.5a48.78 48.78 0 0 1-19.2 11.2 75.18 75.18 0 0 1-21.8 3.2 45.46 45.46 0 0 1-16.5-2.9 39.17 39.17 0 0 1-12.9-8 34.73 34.73 0 0 1-8.3-12.1 39.93 39.93 0 0 1-2.85-15.4 19.87 19.87 0 0 1 3.2-11.6 9.78 9.78 0 0 1 8.35-4.65zm151.2-17.4q-11 15.79-18.6 26.6t-12.3 18a122.4 122.4 0 0 0-6.8 11.4 16.34 16.34 0 0 0-2.1 6.8c0 3.46 1.4 5.2 4.2 5.2s5.76-1 9.3-2.9a81 81 0 0 0 11.1-7.5 137.38 137.38 0 0 0 11.6-10.4q5.79-5.81 10.9-11.5t9-11a75.54 75.54 0 0 0 5.7-8.7l1.6 1c-1.6 2.66-3.77 5.87-6.5 9.6s-5.84 7.56-9.3 11.5-7.14 7.83-11 11.7a121.6 121.6 0 0 1-11.8 10.4 71.11 71.11 0 0 1-11.7 7.4 24.15 24.15 0 0 1-10.5 2.8q-5.4 0-8-3a9.82 9.82 0 0 1-2.6-6.6 23.7 23.7 0 0 1 1.9-8.9 78.79 78.79 0 0 1 6.1-11.5q4.2-6.8 10.9-16.5t16.1-23.9zm11.6-37.2a6.06 6.06 0 0 1 4.6 1.9 7 7 0 0 1 0 9.4 6.52 6.52 0 0 1-9.2 0 7 7 0 0 1 0-9.4 6 6 0 0 1 4.6-1.9z"/>
  <path d="M252.59 101.16q-12 16.2-22.7 33t-22.1 33.4a80.94 80.94 0 0 0 19.7-7.2 104.87 104.87 0 0 0 18.3-12 128.51 128.51 0 0 0 15.9-15.4 111 111 0 0 0 12.3-17l.8 1.2a113.51 113.51 0 0 1-19.3 25 123.76 123.76 0 0 1-20.3 16 92.54 92.54 0 0 1-17.6 8.7 62.28 62.28 0 0 1-11.2 3.1q-1 .6-4 5.2t-8 11.2a181.77 181.77 0 0 1-11.9 14 107.43 107.43 0 0 1-15.6 13.7 87.93 87.93 0 0 1-19.3 10.5 61.28 61.28 0 0 1-22.8 4.2 53.85 53.85 0 0 1-13.4-1.6 34.94 34.94 0 0 1-10.7-4.6 22.51 22.51 0 0 1-7-7.2 18.11 18.11 0 0 1-2.5-9.4 18.61 18.61 0 0 1 6.2-14.3q6.21-5.7 15.6-5.7a21.37 21.37 0 0 1 3.3.2 20.63 20.63 0 0 1 2.7.6v1.6h-1.6q-7.8 0-11.6 4.9t-3.8 13.1a20.5 20.5 0 0 0 1.9 9.2 16.9 16.9 0 0 0 5.16 6.25 22.17 22.17 0 0 0 7.7 3.5 39.82 39.82 0 0 0 26.9-3 75.54 75.54 0 0 0 16.3-10.8 133.13 133.13 0 0 0 14.9-15.1q7.09-8.4 13.4-16.9t11.5-16.4q5.2-7.91 9.2-13.5l-.4-.4q-3.19 3.79-7.1 7.7a77.73 77.73 0 0 1-8.3 7.2 46 46 0 0 1-9.2 5.4 24.68 24.68 0 0 1-10 2.1 14.66 14.66 0 0 1-6.6-1.4 13.34 13.34 0 0 1-4.6-3.7 14.94 14.94 0 0 1-2.6-5.1 19.8 19.8 0 0 1-.8-5.4 33.68 33.68 0 0 1 2.7-12.8 66.71 66.71 0 0 1 7.1-12.9 77.41 77.41 0 0 1 10.2-11.8 90.71 90.71 0 0 1 12.1-9.7 66.47 66.47 0 0 1 12.7-6.7 32.6 32.6 0 0 1 11.8-2.5q7.8 0 11.3 3.9a13.21 13.21 0 0 1 3.5 9.1h.6l7.4-11.4zm-37 .8q-6.6 0-14.3 5.5a75.13 75.13 0 0 0-14.4 13.7 82.27 82.27 0 0 0-11.1 17.8 43.44 43.44 0 0 0-4.4 18 10.6 10.6 0 0 0 2.3 7.1 7.4 7.4 0 0 0 5.9 2.7q2.81 0 7.3-2.3a51.46 51.46 0 0 0 9.4-6.4 101.26 101.26 0 0 0 9.9-9.6 83.2 83.2 0 0 0 8.86-11.65 70.73 70.73 0 0 0 6.4-12.9 37.78 37.78 0 0 0 2.5-13.3 9.87 9.87 0 0 0-1.9-6c-1.23-1.8-3.39-2.65-6.46-2.65z"/>
  <path d="M293.59 101.16l-26.4 36.65.4.4 9.8-11.7a142.4 142.4 0 0 1 12-12.7 77 77 0 0 1 13.3-10.1 26.7 26.7 0 0 1 13.7-4.1q6 0 9.3 3.3a11.5 11.5 0 0 1 3.3 8.5 17.06 17.06 0 0 1-2.3 7.6 94.55 94.55 0 0 1-5.7 9.4q-3.4 5-7.4 10.2c-2.67 3.47-5.13 6.76-7.4 9.9s-4.17 6-5.7 8.6-2.3 4.76-2.3 6.5q0 5.59 5.6 5.6 6.4 0 13.6-4.3t17.2-14.5q4-4 8.1-8.8t7.9-9.5q3.79-4.71 6.9-8.9t4.9-7l1.4.8q-4 6-10.3 14.3t-13.7 16.3q-4.39 4.8-9 9.2a85.73 85.73 0 0 1-9.2 7.7 47.46 47.46 0 0 1-9.1 5.2 22.88 22.88 0 0 1-8.9 1.9 14.4 14.4 0 0 1-9.6-3.2 10.9 10.9 0 0 1-3.8-8.8q0-6 4.8-13.1t10.6-14.3q5.81-7.2 10.6-13.8t4.8-11.6a4.2 4.2 0 0 0-1.6-3.6 6.84 6.84 0 0 0-4.2-1.2q-5 0-11.2 3.7a75 75 0 0 0-12.7 9.8 183.59 183.59 0 0 0-13 13.6q-6.5 7.5-12.1 15t-10 14.4a114.65 114.65 0 0 0-6.6 11.5h-12.4q5.21-8.81 11.1-17.9t11.7-18q5.81-8.9 11.1-17.2t9.5-15.1z"/>
  <path d="M415.79 101.16h13q-7.41 10.4-14.2 20.2t-12.1 18.1q-5.31 8.29-8.5 14.6t-3.2 9.9c0 3.46 1.8 5.2 5.4 5.2q4.2 0 10.7-4.1a94.72 94.72 0 0 0 14.1-11.3 198.07 198.07 0 0 0 15.6-16.8 239.06 239.06 0 0 0 15.2-20.4l1.2.4q-5.4 8.19-12.7 17.7a200.56 200.56 0 0 1-15.3 17.7 109.36 109.36 0 0 1-16 13.7q-8 5.5-15 5.5-5.81 0-8.5-2.9a9.79 9.79 0 0 1-2.7-6.9 17.27 17.27 0 0 1 .9-5.5q.9-2.7 1.9-5.5l-.4-.2q-2.61 2.79-6.5 6.5a77.49 77.49 0 0 1-8.4 6.9 57.55 57.55 0 0 1-9.3 5.4 22.18 22.18 0 0 1-9.2 2.2q-7.41 0-10.4-4.6a18.64 18.64 0 0 1-3-10.4q0-8.2 5.2-18.1a87.22 87.22 0 0 1 13.2-18.6 82.41 82.41 0 0 1 17.4-14.5q9.39-5.8 17.8-5.8a20.41 20.41 0 0 1 7 1.1 14.25 14.25 0 0 1 5 3 14.07 14.07 0 0 1 3.1 4.3 26.31 26.31 0 0 1 1.7 5h.4zm-65.4 56c0 3.07.63 5.43 1.9 7.1a6.28 6.28 0 0 0 5.3 2.5 17.47 17.47 0 0 0 8-2.5 59.57 59.57 0 0 0 9.6-6.7 96.55 96.55 0 0 0 9.9-9.7 83.3 83.3 0 0 0 8.7-11.7 73.85 73.85 0 0 0 6.2-12.6 34.74 34.74 0 0 0 2.4-12.2q0-4.61-2.6-7a9.1 9.1 0 0 0-6.4-2.4q-6 0-13.4 5.2a70.42 70.42 0 0 0-14 13.3 82.91 82.91 0 0 0-11.1 17.9 45 45 0 0 0-4.5 18.8z"/>
  <path d="M486.38 77.96l-15.8 23.2h26.4l-1.2 2.4h-26.8q-8 13-14.3 22.5t-10.63 16.4a116.79 116.79 0 0 0-6.5 11.6 20.13 20.13 0 0 0-2.2 8.3q0 3.8 2.6 5.3a11.82 11.82 0 0 0 6 1.5q7.2 0 15.9-5.5a118.87 118.87 0 0 0 17.3-13.5 219.77 219.77 0 0 0 16.4-17q7.8-9 13.2-16.2l1.2.8q-6.79 8.6-14.9 18.1a198.11 198.11 0 0 1-16.7 17.4 106.4 106.4 0 0 1-17.3 13.1q-8.7 5.19-16.5 5.2a16.07 16.07 0 0 1-10.7-3.8q-4.5-3.8-4.5-10.6a25.22 25.22 0 0 1 2.6-10.3 103.11 103.11 0 0 1 6.8-12.3q4.2-6.6 9.5-14.4t10.9-16.6h-10.8l1.2-2.4h11.2l15.6-23.2z"/>
  <path d="M596.58 119.36a39 39 0 0 1-10.8 8.6 25 25 0 0 1-11.79 3.2 17.84 17.84 0 0 1-9.61-2.5 19.52 19.52 0 0 1-6.19-5.9h-.41a59 59 0 0 1-7.4 16.2 83.17 83.17 0 0 1-12.89 15.85 74.07 74.07 0 0 1-16.5 12 38.7 38.7 0 0 1-18.41 4.8q-8.6 0-13-5t-4.39-13.4a29.45 29.45 0 0 1 2.19-10.2 59.21 59.21 0 0 1 6.11-11.7 88 88 0 0 1 9.2-11.6 78.69 78.69 0 0 1 11.5-10.2 58.67 58.67 0 0 1 13.09-7.2 37.92 37.92 0 0 1 13.91-2.7q8.19 0 12.69 4.8a18.89 18.89 0 0 1 4.9 12.4 13.67 13.67 0 0 0 4.3 8.5q3.91 3.9 10.7 3.9a22.57 22.57 0 0 0 11.3-3 43.19 43.19 0 0 0 9.91-7.8zm-100.59 38.6c0 3.46.66 6.2 2 8.2a6.72 6.72 0 0 0 6 3 22.17 22.17 0 0 0 10.7-2.9 48.46 48.46 0 0 0 10.19-7.6 71.55 71.55 0 0 0 9.11-10.7 90.76 90.76 0 0 0 7.29-12.4 81.69 81.69 0 0 0 4.91-12.5 40 40 0 0 0 1.8-11.1 11.78 11.78 0 0 0-2.11-7.1q-2.08-2.89-6.5-2.9a18.5 18.5 0 0 0-9 2.7 54.82 54.82 0 0 0-9.69 7.1 72.57 72.57 0 0 0-9.31 10.2 105.06 105.06 0 0 0-7.89 12 66.57 66.57 0 0 0-5.5 12.4 37.68 37.68 0 0 0-2 11.6z"/>
  <path d="M615.98 101.16l-25.4 37 .4.4q2.8-3.41 7.1-7.9t9.4-9.2q5.1-4.71 10.7-9.3a136.54 136.54 0 0 1 11-8.2 12.36 12.36 0 0 1 2.2-3.2q1.2-1.2 4.8-1.2c1.47 0 2.77 0 3.9.1s2.3.16 3.5.3a50.79 50.79 0 0 0-6.6 8.3 19.21 19.21 0 0 0-3.2 10.7 10.52 10.52 0 0 0 2.3 7.2 7.31 7.31 0 0 0 5.7 2.6 15.29 15.29 0 0 0 5.9-1.2 29.36 29.36 0 0 0 5.5-3q2.6-1.8 5-3.8c1.6-1.34 3-2.53 4.2-3.6l1.2.8a103.78 103.78 0 0 1-4.6 4.3 51.49 51.49 0 0 1-5.6 4.3 32.55 32.55 0 0 1-6.4 3.3 19.38 19.38 0 0 1-7 1.3 13.92 13.92 0 0 1-10.3-3.9q-3.9-3.9-3.9-10.9a16.81 16.81 0 0 1 2.2-8.6l-.4-.4a157 157 0 0 0-18 14.7q-9.79 9.1-20.8 21.5a72.91 72.91 0 0 0-8.3 11.6 117.47 117.47 0 0 0-7.5 14.8h-13q10.8-17.21 21.6-34.2t22.2-34.6z"/>
  <path d="M684.58 101.16q-7.2 10.4-14.4 20t-12.9 17.65q-5.7 8-9.3 14.1t-3.6 9.7c0 3.86 1.86 5.8 5.6 5.8s8.37-1.87 13.5-5.6a114.84 114.84 0 0 0 16.3-14.9 247.31 247.31 0 0 0 17.5-21.4q8.89-12.1 17.1-25.3h12.4q-11.81 16.2-22 33.3t-21.4 33.9q19-3.41 36.3-16.7a140.89 140.89 0 0 0 30.7-33.1l1.4.6q-14.4 22-32.7 35.3t-37.1 16.3q-7.8 10.59-15.9 21.5a132.61 132.61 0 0 1-17.8 19.6 88.86 88.86 0 0 1-21.3 14.2 60.51 60.51 0 0 1-26.2 5.5 45 45 0 0 1-12.5-1.7 35.86 35.86 0 0 1-10.3-4.7 24 24 0 0 1-7-7.2 16.83 16.83 0 0 1-2.6-9q0-10.41 6.9-15.2t16.7-4.8v.6q-7.2 1.59-10.6 6.5t-3.4 12.3a19.28 19.28 0 0 0 2 8.9 20.09 20.09 0 0 0 5.2 6.5 23.72 23.72 0 0 0 7.3 4 26.21 26.21 0 0 0 8.5 1.4 40.27 40.27 0 0 0 18.2-4.4 78.12 78.12 0 0 0 16.9-11.6 139.68 139.68 0 0 0 15.5-16.3q7.4-9.11 14-18.8t12.3-19q5.7-9.3 10.5-16.7l-.4-.4c-2.13 2.53-4.74 5.5-7.8 8.9a101.19 101.19 0 0 1-10.1 9.7 63.73 63.73 0 0 1-11.7 7.8 27.64 27.64 0 0 1-12.8 3.2q-6.4 0-9.2-2.6a9.08 9.08 0 0 1-2.8-7 20.14 20.14 0 0 1 2.1-8.5 86.46 86.46 0 0 1 6.7-11.3q4.6-6.79 11.7-16.6t17.1-24.4z"/>
  <path d="M747.66 232.81c-.78 4.61-1.32 9.28-2.45 13.79-.74 3-2.34 5.75-3.56 8.61h-2.4l-2.41-2.8v-6.8c.92-3.41 1.77-6.84 2.75-10.22 1.62-5.55 3.36-11.05 5-16.6a9.77 9.77 0 0 0 0-2.8c.42-.42 1.09-.79 1.21-1.29.62-2.48 1.1-5 1.62-7.49l.32.38 1.31-1.18.29-.85c2.12-4.34 5-8.42 4.55-13.63h.62a2 2 0 0 0 0 .79 3.9 3.9 0 0 0 .66.81l4.26-10.41h.62a2.59 2.59 0 0 0 .11.37c0 .05.15.08.15.08l3.66-7.26.57-1.87 1.93-1.34 4.13-7.2 2.24-2 .41-.45.42-.44.45-.8.41-.44.45-.8.42-.45h-.07l.11-.31 3.45-6.64 2.16-1 .41-.79 4.63-6 .56-.4.41-.42.44-.8 1.63-1.58.4-.57 7.26-9.43h.46l.35-.73.48-.34 2.47-3.27.61-.26.43-1 11-12.68 1.38-2.1c.32.14.84.46.91.39 1-1.16 1.94-2.36 2.9-3.55q5.41-6.08 10.85-12.14l1.31-.67 16.82-16.93 1.62-.35a.39.39 0 0 1 .3-.06l1.4 1.3a1.66 1.66 0 0 0-.13.27 7.1 7.1 0 0 0-1.88 1c-4.37 4.31-8.68 8.66-13 13l-.4.4-.17.44.45-.15.41-.38 2.24-.69c1.79-.08 3.58-.24 5.37-.2a30 30 0 0 1 3.64.5l-3.13.59a2.83 2.83 0 0 0-.36.16c-7.16-.9-18.51 6.34-22.36 14.26l-.42.42-.71.36-.48 1.29c-3.41 3.5-6.82 7-10.2 10.51-.73.75-1.34 1.62-2 2.43l2.94-1.33.45-.43v.17c1.89-.59 3.77-1.19 5.67-1.77a2 2 0 0 1 .71.07 2.8 2.8 0 0 1-.6.5l-9.17 4.09a9.29 9.29 0 0 0-2.35 1.48c-4.07 4.83-8.05 9.74-12.07 14.63l-.52.76.69.19-6.24 7-.37.4-.53.56-.84 1.74-1.94 1.92-.47.42-.42.43-.42.81-.46.77-1.44 2-.55.4-.44.81-.43 1.68-6.5 9-.33.86-.13.11.11-.13h.42c-.29.51-.55 1-.86 1.53l-5.57 8.87-.61.41-.92 1 1.59.61-5.3 8.41-.42.83-.72.36-.14 2-4.15 7.63-.52 2.07-.42.42-.43.81-.5 1.57-1.23 4.74.2.21-4.15 18.9z" class="a"/>
  <path d="M921.8 18.19l-2.17 4.85s-.09.07-.09.1 0 .16.06.25v.9l-.17 1.94-.34 2.5a.72.72 0 0 0-.06.29l-.27 1.27a.53.53 0 0 0-.13.34l-2.77 5.79v-.08a.2.2 0 0 1-.16.27l-.27.37-2.18 2a1.14 1.14 0 0 0-.16.15c-1.44 2-2.89 4-4.33 5.92l-.14.15v.14h-.13l-.26.35-1.79 1.66a1.52 1.52 0 0 0-.22.22.24.24 0 0 1-.28.21h.09l-1 .76-.4.29-.27.6-.1.75-2 4.91-1.09 1.46-1.36 1.45v.14h-.13a1.75 1.75 0 0 0-.24.23v.16h-.22l-8.64 5.54h-.14l-1 .36-.37.23v.14h-.13l-.26.38-.35.62v-.09l-.78 1.3v-.09a.22.22 0 0 1-.16.28l-.27.38-.74.86-.89 1v.37h-.12l-.26.34-.87.87-.34.26v.13h-.13a1.36 1.36 0 0 0-.24.24c0 .15-.1.21-.25.19l-1.4 1.17-.38.26a.22.22 0 0 1-.27.17h.09l-2.18 2.91-.05.13-3.52 5.76-2 2c-2.31 3.3-4.31 6.87-7 9.8-3 3.32-6.69 6.09-8.59 10.35v-.09a.21.21 0 0 1-.16.28l-.26.39c-.26.32-.51.64-.77 1v.15l-.13.07-.27.38c-1.75 1.59-3.52 3.16-5.24 4.78a14.28 14.28 0 0 0-1.36 1.72l-.21 1.11-.17 2.48-.25.67-.3 1a1 1 0 0 0-.09.21l-1.53 2.68v-.09a.27.27 0 0 1-.22.3 1.31 1.31 0 0 0-.23.24l-.85 1-.36.28v.13h-.12a1.24 1.24 0 0 0-.26.25.19.19 0 0 1-.25.18l-3 3.7.08.18a26.66 26.66 0 0 1-.33 4.92 63.67 63.67 0 0 1-2.27 6.42l-.29.67-.16.55-.23 1.1-.28 1.32a.38.38 0 0 0-.12.29l-.33.94a.23.23 0 0 0-.08.2l-.36.68v-.07l-.71 1.15-.11.13-1.71 2.28a.2.2 0 0 0-.13.15v.13l-.11.05-.29.41-2.8 2.81c-.43-.68-.86-1.36-1.3-2l.69-.38.6-.42.43-.38c2-2.95 3.92-5.89 5.85-8.85.15-.23 0-.62.05-.93l-.65.43-7.65 5.35-6.79 2.79-3.19-.37c3.26-1.5 6.6-2.84 9.76-4.53 4.48-2.39 8.49-5.37 9.92-10.62a31.64 31.64 0 0 0 .59-4.69l-3.68 1.35a1.2 1.2 0 0 1-.2 0l-2 .23.79-1.56c5.2-2.73 10-5.85 12-11.84a14.93 14.93 0 0 0 .38-2.12c-.63.24-1.28.44-1.9.71-1.34.58-2.66 1.18-4 1.78-4.6 1.05-9.2 2.08-13.79 3.16-2.68.63-5.35 1.36-8 2a7.38 7.38 0 0 1-1.33.1 5 5 0 0 1 1.25-.84c4.62-1.24 9.25-2.43 13.88-3.64a35.39 35.39 0 0 0 24.84-16l.39-.43-.21-.67h.05l-.65-.17c5.32-2.54 8.53-7.14 11.6-11.88l-1.68-1.79c.55-.36 1.12-.7 1.65-1.1a3.57 3.57 0 0 0 .55-.66c-.25 0-.5 0-.74-.11l-11.18-2.73 1-.09 3.14.12c2.7 0 5.4 0 8.09-.07a6.73 6.73 0 0 0 1.83-.59 17.82 17.82 0 0 0-1.77-.22c-1.26 0-2.53 0-3.79.08l-5.62-.53-4-1.41 1.22-.1c3.17.12 6.33.26 9.5.36a14.54 14.54 0 0 0 2-.23l-1.94-.2a3.24 3.24 0 0 0 .31-.24l4.47-.57 1.86-.78h-1.76c-.46 0-.92 0-1.38.07h-.07l-3.09-.5 1.31-.32.76.31-.08-.4 10.21-4.64.52-.62-.8.35-4.31.91a.58.58 0 0 0-.32 0l-1.59.07c-.93 0-1.86 0-2.78-.05a6.58 6.58 0 0 1-1.28-.35c.43-.14.86-.3 1.31-.41l11.26-2.72.46-.36-.67.13-4.26-.22-2-.17-1.27-.36-1.57-.33c1.29-.13 2.58-.26 3.87-.42v-.46c.71-.11 1.44-.17 2.13-.34 3.09-.78 6.16-1.6 9.23-2.4l1.57-1.4 4.83-3.39.37-.38 1.36-.5-.95-1.53 2.93-3.09.17-.38-.44.09-2.67 1-15.41 2-.17-.74c8.58-.15 15.52-4.51 22.51-8.74l.48-.32.51-.42-.76.17-.49.3-2.24 1-.73.13-1.63.8-2.85-.45c1.9-.78 3.8-1.56 5.69-2.37a4.06 4.06 0 0 0 .81-.65 3.82 3.82 0 0 0-1 0l-11.9 3.67-.82-1.25 8-7.58 9.62-9.17.83.84a.72.72 0 0 1 0 .29l.89.58c0 .11-.09.22-.12.33l-.08.15.06-.17.82-.4 6.83-3.62.62-.59h-.52l-.73-.72.22-.67.8-.37-.11-.22-.67.61-.82.81-.43.43-1.63.81-1.57.39 2-2.4 4.41-5.6.48-.84.54-.37-.24-.22-.36.57-.38.11-.48-1.41 2.24-3.29c0-.15.08-.31.11-.47l-.45.15c-2.49 2.58-5 5.15-7.46 7.74q-6.16 6.45-12.31 12.93l-.28-.28 4.87-6.1.7-.87.35-.45.51-.71.36-.43.34-.45.36-.46c0-.12.11-.25.16-.38l-.38.17-.39.41-.38.43-.36.43-.54.7-.37.38-.76.87-15.6 14.95-4.65 5.28-.45-1.26.19-.46.22-.72.48-.67 2-2.51 3.19-3.19.4-.4.41-.41.44-.4 10.08-10.31.33-.46.4-.81c0-.12.09-.23.14-.35l-.21.28-.56.63-.4.4-7.69 6.26.27-2.45 2.39-1.62.61-.32-.62-.48-2.46 2.38-1.59.42-.43-.5 1.43-1.72.39-.39.37-.5-.62.24-.49.31-3.57 2.89-1.91 2-5.57 6.89a8.07 8.07 0 0 1-1.12 1.36c-.21.16-.68 0-1 0 .36-1.14.73-2.27 1.08-3.42.21-.67.39-1.36.58-2-.54.5-1.29.89-1.59 1.5-2.86 5.77-5.65 11.59-8.46 17.39l-6.22 8.13a1.92 1.92 0 0 0-.28-.29l13.08-25.74.91-1.5c0-.15.09-.3.13-.45l-.45.1-1.13.67-1.07.75-1.23.78c-.64-2.34-1.63-1.9-2.75-.33l-.82.44-.43.42-.81.44-.42.42-.43.43-.43.43-.42.42-.44.81-1.63 3.64a.8.8 0 0 0 .06.38h-.11l-.82.43-.63.3-.01.85c-.93 8.26-2.6 16.28-7.68 23.17l-1.15 1.53-.35.5-.34.36-.06.09-.4.72h-.07l-3.86 4.48h-.76l6.83-9.25.29-.72.91-1.28.29-.71.07-.08.33-.7.09-.11.31-.71 1.17-3.29.41-1.59.4-.8v-.81l.16-1.54-.08-.46.34-.41.4-2 .07-.78.09-2.33-.06-.87.32-.39.1-1.16.26-.84.42-1.22.17-.81.3-.4.27-.83 1.21-2.76c.05 0 .16 0 .16-.05a1.42 1.42 0 0 0 0-.29 4.8 4.8 0 0 0-1.37 0 21.19 21.19 0 0 0-13.55 12.4l-.75-1.2v-1.19l.43-.46c.31-.52.6-1 .91-1.55.52-.89 1-1.78 1.58-2.67l-3.27.73.74-1.65 3.51-1 10.11-5 .73-.26c4.14-1.76 8.35-3.37 12.41-5.31s8.19-4.32 12.3-6.5l10.19-4.76.73-.27 9.65-4.15a.62.62 0 0 0 .3-.09l1-.3a.53.53 0 0 0 .22-.08l7.37-4.73.36-.26v-.13h.14a2.28 2.28 0 0 0 .22-.22l.05-.14h.14l1-.9 1.16-1.31v.08l.32-.34.11-.11c0-.15 0-.24.19-.25a1.14 1.14 0 0 0 .24-.25l2.35-3.16v.08l1.54-2.81c0-.22.05-.44.08-.66l.67-2 .73-1 .54.21.33 1.95v1.6l-.35 2.3-.27 1a.54.54 0 0 0-.09.35l-3 10zm-16.42 6l-.11.37.15-.33.18-.31zm9.08 6.27a62.7 62.7 0 0 0-6.83 3.22c-5.27 3.26-10.4 6.75-15.58 10.16-.21.13-.31.42-.46.63a2.42 2.42 0 0 0 .76 0c3-1 5.92-2 8.86-3.06a3.67 3.67 0 0 0 .87-.68 6.25 6.25 0 0 0-1.15.05c-1.55.36-3.1.77-4.64 1.16l-.18-.2a87.34 87.34 0 0 0 8.66-4c3.49-2.08 6.71-4.59 10-6.92l.38-.87zm-10.41-10.07c0 .11-.15.24-.12.32a.34.34 0 0 0 .29.12.3.3 0 0 0 .13-.29c0-.08-.16-.1-.3-.15zm.31 19.62a2.92 2.92 0 0 0-.36-.11l-.14.11c-.05.04.15.17.21.17s.21-.1.32-.17zm-1.12.48c-.08-.08-.15-.21-.22-.22a1 1 0 0 0-.34.13c.06.07.13.21.19.21a1.14 1.14 0 0 0 .4-.12z" class="a"/>
  <path d="M760.05 183.16h-.64q-.93-9.65-1.88-19.29-1.34-8.16-2.66-16.33c0-1.86.05-3.71.06-5.57a3.5 3.5 0 0 0-.2-.82 2.61 2.61 0 0 0-.41.61q-1.62 5.1-3.22 10.21l-.14.49.09 5.1c.08 1.66.18 3.32.24 5a5.8 5.8 0 0 1-.17 1.07 4.87 4.87 0 0 1-.58-.94c-.42-1.14-.8-2.29-1.19-3.43 0 1.26-.06 2.53 0 3.79a5.78 5.78 0 0 0 .17 1.37l4.91 19.65.06 7.92h-.62l-2.74-16.08-2.58-11.15-.1-3-.14-.51-.4-1.34a9.72 9.72 0 0 0-.59 1.16c-.32.91-.6 1.84-.89 2.76l-.3-.21v-1.16l.45-1.64.36-1.13.22-.9.15-.39.74-2.59a.15.15 0 0 0 0-.19l.34-1a.21.21 0 0 0 0-.25l.25-1.31.16-.69.16-.88.25-.67.12-.53.28-.66 2.76-6.25v-.14l.75-1.85v-.15l2.31-5.42a.25.25 0 0 0 .07-.28l.15-.86.27-.69 5.56-10.91.81-1.61q1.37-2.82 2.71-5.64a.24.24 0 0 0 .12-.26l1.13-1.76.08-.1v-.13l.11-.08.28-.45.41-.78h.43c-2.57 6.3-4.14 12.73-2.59 19.57l-.1 2.64a27.92 27.92 0 0 1-1.12-2.58 10.41 10.41 0 0 1-.27-1.95l-.2-2.86-.29-.88-.33.43-1.12.39a22.48 22.48 0 0 0-5.59 18l3.38 23.78.28 1.37.14 1.44.26 1.36.12 1.84.3 2.59v2.79zm-9.86-25.72l-.45-.86c-.14.23-.4.45-.41.69s.19.55.3.83zm13.58-32.58a1.78 1.78 0 0 0-.5-.21.39.39 0 0 0-.21.3 1.42 1.42 0 0 0 .28.39zm1.57 59.12l-1.59-.61c.3-.34.61-.68.92-1l.56.19.05-.6a12.44 12.44 0 0 0 1.4-.34c4.71-1.75 9.3-3.95 14.13-5.18 6.75-1.72 13.67-2.73 20.52-4 8.17-1.92 15.72-5.09 21.92-10.95l.11 1.22a.78.78 0 0 0-.07.33v.11h-.11a.38.38 0 0 0-.26.25.19.19 0 0 1-.25.17l-1.41 1.18-.34.23a.24.24 0 0 1-.29.2l-.07.07-.54 1.14-.26.83-2 3.31v-.08l-.25.31a.25.25 0 0 0-.19.19c0 .13 0 .2-.18.2a.37.37 0 0 0-.23.23v.14h-.14a.4.4 0 0 0-.25.26l-1 1.4a.18.18 0 0 0-.16.17v.13h-.11l-.28.39-4.48 4.42-.34.23a.25.25 0 0 1-.29.2h.09l-5.36 5.66-2.39 3.61a.2.2 0 0 1-.16.27l-.25.35-1.94 2.17h.08l-2.6 2.31-.73-.39 7.73-9.8a4.33 4.33 0 0 0 .39-.81c-.29.09-.6.15-.88.26l-6.43 2.6c-2.14.45-4.27 1-6.44 1.3a19 19 0 0 1-3.28-.07l3-.66c.52-.12 1-.27 1.54-.4a31.58 31.58 0 0 0 19.39-9.45l.29-.52.51-.22c-.05 0-.12-.14-.13-.13l-.45.29-.52.28-5.81 2.14 1.91-1.31 11.45-9.29.44-.61-.75.29-8.76 4.07c-8.47 2-16.92 4.08-25.4 6.08-6.77 1.61-13.73 2.27-19.06 7.24z" class="b"/>
  <path d="M747.34 207.21c-.52 2.5-1 5-1.62 7.49-.12.5-.79.87-1.21 1.29l-.45-2 .45-.46a9 9 0 0 1 .36-2.1c2-4.61-2.68-9.95 1.58-14.3l.09-.15-.09.15a5.75 5.75 0 0 1-.77-1.55c-.82-5.21-1.57-10.43-2.34-15.65l.26-3.25.07-.73.57-.13c.17 1.19.3 2.37.5 3.55l3.67 21-.73 2.59z" class="c"/>
  <path d="M834.05 52.98l7.78-3.92h2l-4.82 5.6-1.59.35h-.46c-1.93 2.63-4.86 5-5.58 7.93-1.34 5.47-1.41 11.26-2 16.91l-3.31 13.57-.33-.78c.91-4.82 1.94-9.62 2.71-14.46 1-6.08 1.71-12.19 2.55-18.3l1.26-2.67c.32-.68.62-1.37.93-2l-2.24.52.81-1.8 2.09-.84a.6.6 0 0 0 .2-.11z" class="a"/>
  <path d="M772.81 163.89c-.75.68-1.5 1.36-2.24 2 .53-4.81 1.83-9.69 1.43-14.42-.81-9.52-2.54-19-3.89-28.44l.5-10.41.24-.81.18-.77-.18-1.6.22-.41.22-.34.35-.52v-.06l.82-1.46 1.26.1-1.63 6.33-.76 4.45-.05.42c.2 3.45.16 6.94.63 10.35 1.57 11.65 4.78 23.18 2.15 35.08-.01.15.5.35.75.51z" class="b"/>
  <path d="M746.45 197.17c-4.26 4.35.39 9.69-1.58 14.3a9 9 0 0 0-.36 2.1l-2-7.7.26-1q-.35-7.43-.67-14.84l.3-2.52.29-2.78a.45.45 0 0 0 0-.39l.29-2.87.32-1.52c.77 5.22 1.52 10.44 2.34 15.65a5.75 5.75 0 0 0 .77 1.55z" class="d"/>
  <path d="M831.73 53.9l-.81 1.8-10.31 6.89-.48.5-.43.81-2.44 1.18-1.36.09-13.28 8.75-.56.4-.43.81-2.89.32c3.71-3 7.23-6.22 11.19-8.81 6.52-4.26 13.32-8.1 20-12.09a9.9 9.9 0 0 1 1.8-.65z" class="e"/>
  <path d="M743.67 175.99l-.07.73-.34-1.53.31-1.71a.32.32 0 0 0 .07-.35l.27-1.63.14-.69.28-2.1a.34.34 0 0 0 .09-.36l.5-2 .33-1.16.45-1.63h.35l.3.21-.45 15.04.14.76 3.2 26-.76.27-.09-5.45-3.67-21c-.2-1.18-.33-2.36-.5-3.54l-.17-.57zm55.2-100.55l2.89-.32-1.58 4.36a18.41 18.41 0 0 1-.39 2.47 6.53 6.53 0 0 1-.87 1.47l-.15-3.25c-.54 1-1.12 2-1.59 3a19 19 0 0 0-.75 2.24l-.41-.5c0-.76 0-1.52.08-2.27.11-.28.22-.56.31-.84a2 2 0 0 0-.29-.14l-.28.87-2.13 4-.06-3.2c.57-1.38 1.17-2.75 1.7-4.13.05-.11-.28-.36-.44-.54l-.31-1 .12-.12 1-.57 2.09-1.14 1.11-.45z" class="b"/>
  <path d="M747.66 232.81v-1c3.16-2.67 6.1-5.68 9.54-7.92 6.25-4.1 12.79-7.74 19.22-11.57l.36.28c-4.7 3.23-9.16 6.9-14.16 9.56-5.52 2.94-11.43 5.05-14.96 10.65z" class="f"/>
  <path d="M826.51 159.51l-.68.81a.34.34 0 0 0-.2 0l-.37-1.27.41-.42.43-.81c.06 0 .17 0 .17-.06a1.55 1.55 0 0 0 0-.29l1.67-3.09c0-.13 0-.26.05-.39l-.23.2-5.16 2.23-15.13 3.48-.46-.4a1 1 0 0 1 .34-.06l1.64-.32a29.51 29.51 0 0 0 3.87-.94c5.4-2.07 10.78-4.22 16.17-6.34h.39l.43 1.19-.28.86a.32.32 0 0 0-.14.3l-.12.47-.3.68c-.65 1.16-1.3 2.32-2 3.48v-.01a.21.21 0 0 1-.14.27z" class="a"/>
  <path d="M792.48 200.34l-.34.45h-.8l-.46.41-.42.41-.4.4c-.47.15-.95.28-1.41.46-4.35 1.76-8.7 3.54-13.07 5.27-.28.11-.7-.12-1-.19.31-.13.62-.26.94-.37 2.77-1 5.54-1.88 8.29-2.87a5.41 5.41 0 0 0 1.22-.9 14.63 14.63 0 0 0-1.48 0l-14.68 1v-.65l2.5-.26c5.73-.1 11.59.63 16.8-2.67l4-2.9zM782.24 90.17l1-1.09 2 .45-3.65 11.15v10.68a8.08 8.08 0 0 1-.24 1.36 5 5 0 0 1-.48-1.42V97.11l1.2-4c.39-1 .79-1.89 1.19-2.84l.19-.25-.17.28-.31.08z" class="b"/>
  <path d="M785.33 89.53l-2-.45 11.27-11.37.31 1-5.93 7.1-3.66 3.72z" class="e"/>
  <path d="M791.34 200.81h.8c-4.06 3.2-8.12 6.42-12.2 9.6-1 .79-2.12 1.48-3.18 2.22l-.36-.28-1.16-.05-.37-.3 15.21-10 .4-.4.42-.41z" class="f"/>
  <path d="M778.14 95.36l4.09-5.17.64.49-.79 2.42-1.53 2.86-1 2.45-.73-.1v-2.34z" class="e"/>
  <path d="M778.14 95.36l.79.58a.82.82 0 0 1-.12.2l-7 10.66-1.26-.1 7.5-11.23h.19l-.12-.12z" class="f"/>
  <path d="M829.73 153.12l-.43-1.19-.32-.28-.07.29a5.13 5.13 0 0 0-1 .11l-4.47 1.35 3.92-2.44 3-1.46c.44.68.87 1.36 1.3 2l-.46.39-.36.26a.2.2 0 0 1-.27.15h.07zm-87.68 36.93l.67 14.84-1.11-10.54c0-1.5 0-3 .06-4.5a5.19 5.19 0 0 1 .21-.93z" class="b"/>
  <path d="M742.5 205.87l2 7.7-.45.46zm-.45-15.82l-.17-1.13a5.19 5.19 0 0 0-.21.93c0 1.5 0 3-.06 4.5l.42-10.35.32 3.53z" class="f"/>
  <path d="M843.79 49.11h-2l5.14-3.19-.74 1.65-1.21.81-1.2.83z" class="e"/>
  <path d="M792.48 200.34l-.4-2.46 1.08-1.14 1.62-.84.13.08zm-49.22-25.15l.34 1.53-.26 3.25-.32 1.52-.54-1.13z" class="f"/>
  <path d="M742.48 180.36l.54 1.13c-.09 1-.19 1.91-.29 2.87 0 0-.11.07-.11.11a1.57 1.57 0 0 0 .06.28l-.29 2.78-.32-3.53v-.44l.35-2.79z" class="b"/>
  <path d="M796.49 192.75l.73.39-2.31 2.84-.13-.08-.37-.72a.65.65 0 0 1-.31 0l-.07-.47.54-.13-.19-.31z" class="f"/>
  <path d="M850.49 44.89l-3.51 1z" class="e"/>
  <path d="M768.85 109.49l.18 1.6-1.33 1.23h-.43z" class="f"/>
  <path d="M823.34 162.68c0-.4-.07-.81-.11-1.22v.06l.42-.43.42-.42.87.4v.41l-1.25 1.25z" class="a"/>
  <path d="M873.39 84.33l2-2zm26.35-26.24l1.36-1.45z" class="e"/>
  <path d="M762.46 121.49l-.81 1.61zm-20.01 59.32l-.35 2.79z" class="f"/>
  <path d="M925.38 6.12l.35-2.3-.35 2.3zm-40.05 63.59l.89-1zm32.05-57.9l-1 .9zm2.02 14.42l.17-1.94zm6.32-24.04l-.33-1.95zm-.91-2.16l-.73 1zM795.68 77.02l-1 .57zm3.2-1.59l-1.11.45zm50.45 38.83l.21-1.11z" class="e"/>
  <path d="M838.51 141.06l.23-1.1zm-93.24 24.12l-.33 1.16zm.78-1.64h-.33l.35-1.17zm.83-3.93l-.36 1.13zm92.02-20.2l.29-.67z" class="f"/>
  <path d="M921.8 18.19l.22-.74zM925.38.21l-.54-.21z" class="e"/>
  <path d="M756.05 134.01l-.27.69z" class="f"/>
  <path d="M896.96 22.81l-.73.27z" class="e"/>
  <path d="M819.73 167.19l.26-.83zm9.16-11.76l.3-.68zm-80.01-3.04l-.16.69zm.41-1.58l-.25.67z" class="f"/>
  <path d="M923.41 3.03c0 .22-.06.44-.08.66l.08-.66z" class="e"/>
  <path d="M744.05 170.81l-.16.71zm5.64-21.16l-.28.66z" class="f"/>
  <path d="M848.91 117.41l.25-.67zm55.29-67.13l.1-.75zm-42.87-10.69l-.73.26zm24.71-11.78v.01l-.01-.09.01.08z" class="e"/>
  <path d="M810.05 178.56l.34-.23zm12.84-15.2a.38.38 0 0 1 .26-.25zm-79.25 9.77a.32.32 0 0 1-.07.35 1.15 1.15 0 0 1 0-.26l.07-.09zm79.7-10.45h.31l-.38.29a.78.78 0 0 1 .07-.29zm-8.06 10.67a.18.18 0 0 1 .16-.17v.16zm-.38.56l.28-.39z" class="f"/>
  <path d="M881.17 73.5h-.09s.03.02.09 0zm.18-.19l.38-.26zm-2.4 3.24l.04-.13.06.07-.1.06z" class="e"/>
  <path d="M744.44 168.33a.34.34 0 0 1-.09.36 1.23 1.23 0 0 1 0-.27l.09-.09zm76.09-3.11l.07-.06.03.1-.1-.04z" class="f"/>
  <path d="M905.98 47.88h-.09zm-1.41 1.05l.4-.29z" class="e"/>
  <path d="M820.89 164.95l.34-.23zm-3.16 5.47v.08a.08.08 0 0 0 0-.08zm-.44.5a.25.25 0 0 1 .19-.19v.17zm-.41.43a.37.37 0 0 1 .23-.23z" class="f"/>
  <path d="M906.17 47.65a1.52 1.52 0 0 1 .22-.22z" class="e"/>
  <path d="M822.64 163.54v-.01.09-.08zm-6.16 8.27a.4.4 0 0 1 .25-.26z" class="f"/>
  <path d="M915.82 13.16l-.36.26zm.39-.35a2.28 2.28 0 0 1-.22.22zm2.35-2.28v-.08zm-29.61 54.34l.37-.23zM919 10.08l-.11.12-.02-.13.13.01zm.42-.5a1.14 1.14 0 0 1-.24.25zm-29.1 54.71l.13-.05-.05.1-.08-.05zm34.73-56.86a.54.54 0 0 1 .09-.35zm-3.26-.93v-.08s-.04.06 0 .08zM902.2 55.18l.01.01h.07l-.08-.01zm-3.1 3.52l.04-.05.01.12-.05-.07zm.26-.24a1.75 1.75 0 0 1 .24-.23z" class="e"/>
  <path d="M809.88 178.81h-.09z" class="f"/>
  <path d="M883.14 71.88l-.04-.01v.06l.04-.05zm.21-.2a1.36 1.36 0 0 1 .24-.24zm.4-.37l.34-.26zm1.21-1.13l.26-.34zm34.64-46.79c0-.09 0-.17-.06-.25s.06-.06.09-.1a.26.26 0 0 1-.03.35zm-32.64 44.42l.27-.38z" class="e"/>
  <path d="M804.49 184.49l.03-.03.07.03h-.1z" class="f"/>
  <path d="M887.39 67.16v.09z" class="e"/>
  <path d="M802.1 188.07v.02l.06-.02h-.06zm-.42.62l.25-.35z" class="f"/>
  <path d="M906.91 18.53a.62.62 0 0 1-.3.09.19.19 0 0 1 .3-.09zm-18.72 47.42v.09z" class="e"/>
  <path d="M799.82 190.81h-.08z" class="f"/>
  <path d="M908.05 18.15a.53.53 0 0 1-.22.08l.09-.12zm-74 34.83a.6.6 0 0 1-.21.08l.08-.12zm54.51 12.44l.26-.38zm27.25-29.08v.08z" class="e"/>
  <path d="M766.5 113.73l-.08.11-.05-.11h.13zm71.61 28.94a.38.38 0 0 1 .12-.29v.18zm-71.25-29.6l-.28.45zm-14.37 30.2l-.04.13-.06-.08.1-.05zm85.21.54a.23.23 0 0 1 .08-.2v.13zm-.36.62l.01.07.02-.05-.03-.02zm-.83 1.27l.12-.12.03.13-.15-.01zm-67.22-36.96l-.22.34zm65.61 39.38a.2.2 0 0 1 .13-.15v.15zm-65.21-39.95l-.05.05-.06-.06.11.01zm64.83 40.54l.29-.41z" class="f"/>
  <path d="M856.14 106.65l.27-.38zm.4-.6l.04-.03.08.04-.12-.01zm56.51-66.88a1.14 1.14 0 0 1 .16-.15v.17zm-71.26 88.24l-.07-.18.12.06-.05.12zm2.92-3.88l-.04-.01v.05l.04-.04zm.21-.2a1.24 1.24 0 0 1 .26-.25zm.39-.36l.36-.28zm1.21-1.24a1.31 1.31 0 0 1 .23-.24z" class="e"/>
  <path d="M755.67 135.56a.25.25 0 0 1-.07.28.17.17 0 0 1 .07-.28z" class="f"/>
  <path d="M846.97 121.19v.09zm1.55-2.59a1 1 0 0 1 .09-.21v.14zm66.86-81.62l.27-.37z" class="e"/>
  <path d="M765.29 115.59a.24.24 0 0 1-.12.26v-.17zm-12 25.67l-.04.15-.06-.09.1-.06zm73.63 17.59l.02.06.02-.05-.04-.01z" class="f"/>
  <path d="M782.87 90.68l-.64-.49.74.2a.72.72 0 0 1-.1.29z" class="b"/>
  <path d="M908.57 45.24l.14-.15v.15z" class="e"/>
  <path d="M826.51 159.51l.27-.4z" class="f"/>
  <path d="M919.05 29.02a.72.72 0 0 1 .06-.29l.06.16z" class="e"/>
  <path d="M825.62 160.35a.39.39 0 0 1 .21 0l-.24.33a1.54 1.54 0 0 0 .03-.33z" class="f"/>
  <path d="M908.18 45.81l.26-.35z" class="e"/>
  <path d="M825.59 160.65l-.35.38.35-.36zm-.69.82v-.41a1.06 1.06 0 0 0 .31-.05z" class="f"/>
  <path d="M857.34 105.06l.26-.39zm.42-.67v.09zm60.84-73.76a.53.53 0 0 1 .13-.34z" class="e"/>
  <path d="M830.9 152.17l.36-.26zm-.2.18l-.06-.02.01.04.05-.02zm-1.39 1.93a.32.32 0 0 1 .14-.3zm-80.84.11a.21.21 0 0 1 0 .25l-.06-.14zm-.42 1.25a.15.15 0 0 1 0 .19l-.06-.11z" class="f"/>
  <path d="M778.14 95.37l.12.12h-.19z" class="e"/>
  <path d="M747.25 158.32l-.15.39z" class="f"/>
  <path d="M833.32 116.27c-4.63 1.21-9.26 2.4-13.88 3.64a5 5 0 0 0-1.25.84 7.38 7.38 0 0 0 1.33-.1c2.68-.66 5.35-1.39 8-2 4.59-1.08 9.19-2.11 13.79-3.16-4.76 5.92-9.18 12.21-17 14.59-.54.16-.94.74-1.4 1.12-3.24 1-6.49 1.91-9.72 2.88a11.82 11.82 0 0 0-1.41.62 6.69 6.69 0 0 0 1.73 0c7-1.86 14-3.76 21-5.65-3.46 7.59-7.77 14.34-16.2 17.33a36 36 0 0 0-5 2.73l-30.39 9c.31-.56.58-1.13.92-1.66l4.24-6.5 1.37-1.14 1.06-.86 1.64-.77.75-.45 1.21-.4.79-.4.93-.15a1.12 1.12 0 0 0-.09-.17l-.82.34-.81.39-1.19.4-.82.38-.74.08 2.3-4.57 14.12-6.29c.61-.27 1.23-.5 1.85-.75a9.66 9.66 0 0 0-2.3.2c-3.31 1.12-6.6 2.33-9.9 3.5 1.11-1.66 2.19-3.35 3.33-5l6-8.62 9.17-4.09a2.8 2.8 0 0 0 .6-.5 2 2 0 0 0-.71-.07c-1.9.58-3.78 1.18-5.67 1.77 2.08-2.32 4.14-4.66 6.26-6.94 1.87-2 3.8-4 5.7-6l11.53-4.7c.31-.13.6-.3.9-.45a3.61 3.61 0 0 0-1.08 0c-2.42.68-4.83 1.39-7.24 2.1 2.38-2.36 4.49-5.1 7.21-7s6.28-3.06 9.45-4.54a2.83 2.83 0 0 1 .36-.16l3.13-.59a30 30 0 0 0-3.64-.5c-1.79 0-3.58.12-5.37.2a14.63 14.63 0 0 1 3.06-1c4.89-.39 9.79-.51 14.66-1 1.91-.21 3.7-1.31 5.59-1.89a9 9 0 0 1 2.16-.13c-.22.63-.24 1.54-.68 1.84a445.83 445.83 0 0 1-10.92 7.16c-1.67 1.07-3.39 2-5.09 3.08l-2.86.72c1.17 0 2.33 0 3.49-.1.73 0 1.44-.22 2.16-.34-3.33 5.18-7.12 9.81-13.28 11.86-.89.29-1.6 1.23-2.33 1.87zm-22.45 26.41v.43h4.4c.27 0 .53-.05.79-.07-.26-.14-.52-.43-.77-.41-4.8.37-9.6.78-14.4 1.2-.17 0-.32.25-.48.39a5.06 5.06 0 0 0 .78 0zm25.55-38.06l5.2-.9c-.08-.11-.16-.31-.22-.3-1.6.15-3.19.3-4.78.51-.26 0-.48.34-.72.52zm-37 40c-.12-.1-.19-.22-.25-.21a6.26 6.26 0 0 0-.73.14c.08.1.17.31.23.3a3.72 3.72 0 0 0 .78-.26zm-.5-61.2a6.53 6.53 0 0 0 .87-1.47 18.41 18.41 0 0 0 .39-2.47 13.51 13.51 0 0 1 1.3-1.1c4-2.69 8-5.35 11.93-8l-1.71 6.3a34 34 0 0 0-1.13 3.64 7.1 7.1 0 0 0 .26 2.16c.19-.66.41-1.31.58-2 .22-.88.41-1.78.61-2.66.83-1.42 1.66-2.85 2.5-4.26 0-.06.3 0 .45 0 .05 2.25.08 4.51.17 6.77a3.88 3.88 0 0 0 .47 1.15 8.27 8.27 0 0 0 .38-1.26c.59-3.73 1.15-7.45 1.72-11.18 2.12-2 4-4.39 6.42-6.08 2-1.41 4.54-2.08 6.84-3.08-.84 6.11-1.59 12.22-2.55 18.3-.77 4.84-1.8 9.64-2.71 14.46l-2 4.84-.41.83a.45.45 0 0 0-.36.05l-9.24 14-1.38 2.1a16.66 16.66 0 0 0-2.25 1.3c-1.8 1.45-3.54 3-5.3 4.5l.94-3 .84-2.47q2-13.17 3.87-26.33c0-.24-.2-.51-.31-.76a2.81 2.81 0 0 0-.36.82c-.19 2.3-.2 4.61-.52 6.89-.86 6-1.84 12.06-2.77 18.08l-.46 1.2-.67 1.64-3.28 8.39-.87.81-1.65.33.38-2c.58-6.12 1.18-12.24 1.73-18.37 0-.45-.3-.92-.46-1.39a10.12 10.12 0 0 0-.29 1.39c-.44 5.75-.85 11.5-1.27 17.24l-2.56 7.72a13 13 0 0 0-2.35 1.52c-1.38 1.37-2.63 2.87-3.93 4.32 4-8.8 2.57-17.91 1.84-27.08-.46-5.86.14-11.8.26-17.71l2.78-6 .32 5.5.41 1.36c.3-.4.76-.76.87-1.21.63-2.58 1.13-5.16 1.66-7.73z" class="g"/>
  <path d="M827.43 150.94l-3.92 2.44 4.47-1.35a5.13 5.13 0 0 1 1-.11c-5.39 2.12-10.77 4.27-16.17 6.34a29.51 29.51 0 0 1-3.87.94l-1.64.32a1 1 0 0 0-.34.06l-6 .82-7.29 1.57c-2 .62-4 1.22-6 1.86a4 4 0 0 0-.85.53c.29.09.62.31.87.25 3.76-1 7.51-2.08 11.27-3.13l1.92-.55 6.53-1 15.13-3.48a3.5 3.5 0 0 1-.34 1.12 30.85 30.85 0 0 1-13.15 10.45c-2.74 1.1-5.19 2.91-7.78 4.39-6.85 1.31-13.77 2.32-20.52 4-4.83 1.23-9.42 3.43-14.13 5.18a12.44 12.44 0 0 1-1.4.34l5.57-8.87c.31-.5.57-1 .86-1.53q6.57-3 13.15-6.09c.14-.07.22-.28.33-.43-.29 0-.64-.23-.87-.14-3.12 1.29-6.23 2.62-9.34 3.94.41-.8.77-1.63 1.23-2.39 1.15-1.89 2.34-3.75 3.52-5.63 4.87-1.89 9.65-4.08 14.64-5.61 9.46-2.9 19-5.43 28.57-8.11l6.79-2.79a12.6 12.6 0 0 1-.41 2.22c-.52 1.52-1.21 2.97-1.83 4.44z" class="d"/>
  <path d="M792.05 185.17c-.51.13-1 .28-1.54.4l-3 .66a19 19 0 0 0 3.28.07c2.17-.33 4.3-.85 6.44-1.3a35.25 35.25 0 0 1-3 4c-2.87 2.94-5.19 6.58-10.06 6.8-5.21.23-10.41.9-15.61 1.36-.21 0-.42-.16-.63-.24.17-.18.31-.44.52-.53 2-.81 3.9-1.68 5.91-2.36 4.12-1.4 8.28-2.69 12.43-4l.49-.15-.09-.15-.41.29c-5.63.52-11.28.94-16.91 1.58-3.06.35-6.08 1.06-9.12 1.6l6.8-4c1.73-.4 3.47-.78 5.2-1.21.25-.06.45-.35.67-.53a2 2 0 0 0-.75-.13c-2.1.49-4.18 1-6.27 1.53l-6.45 3.6 5.29-8.39c5.33-5 12.29-5.63 18.92-7.19 8.48-2 16.93-4 25.4-6.08a7 7 0 0 1-.31 1.87c-.61 1.26-1.37 2.45-2.07 3.67l-1.91 1.31c-.4.3-.78.63-1.2.89-1.75 1.05-3.51 2.08-5.26 3.11l-2.45.78a2.36 2.36 0 0 0-.38.1l-1.21.31a1.36 1.36 0 0 0-.39.08h-8.71l-2.06.28a8.61 8.61 0 0 0 2 .5c2.57.11 5.14.12 7.72.17zm-16.84-2.72l-.07.23h4.57v-.23z" class="g"/>
  <path d="M794.1 195.17a.69.69 0 0 0 .32 0l-1.26 1.56-1.11 1.15-4 2.9a5.32 5.32 0 0 0-1.82-.37c-4.52.75-9 1.56-13.52 2.39a6.73 6.73 0 0 0-1.46.65l-2.5.26v.65l14.68-1a14.63 14.63 0 0 1 1.48 0 5.41 5.41 0 0 1-1.22.9c-2.75 1-5.52 1.91-8.29 2.87-.32.11-.63.24-.94.37.35.07.77.3 1 .19 4.37-1.73 8.72-3.51 13.07-5.27.46-.18.94-.31 1.41-.46l-15.21 10-3.71 1.36 3.71-.93c.13 0 .25-.09.37-.13l1.16.05c-6.43 3.83-13 7.47-19.22 11.57-3.44 2.24-6.38 5.25-9.54 7.92l4.14-18.9.42-.4 4.35-2.49 11.64-1.2h.78l.54-.25c-.16-.17-.34-.51-.47-.49-4.18.61-8.34 1.25-12.51 1.89l-4.44 2.4-.4.38 1.23-4.74c.17-.52.34-1 .5-1.57l.43-.81.42-.42c6.65-5.49 14.61-6.1 22.73-6.09l3.58-.3 1.64-.07 8-1.6zm-35.62 20.85l3.13-.52c0-.1-.07-.3-.08-.3l-3.11.74-2 .54c0 .08.11.23.13.22zm13.48-7c-3.32.49-6.9.62-10.22 1.62-2.77.83-5.24 2.64-7.8 4.1-.31.17-.36.81-.52 1.23a1.57 1.57 0 0 0 .67.06l18.2-6c.59-.2 1.15-.48 1.73-.73z" class="c"/>
  <path d="M772.81 163.89c-.25-.16-.74-.36-.71-.46 2.63-11.9-.58-23.43-2.15-35.08-.47-3.41-.43-6.9-.63-10.35 0-.14 0-.28.05-.42l.76-4.45c.38-.21.94-.32 1.12-.64 1.23-2.28 2.38-4.61 3.58-6.91a5 5 0 0 1 .72-.82c0 .38.08.75.13 1.13.41 3.55.59 7.15 1.32 10.63.48 2.29 1.76 4.4 2.68 6.59 1 5.47 2.72 10.95 2.61 16.4-.09 4.75-2.31 9.46-3.58 14.18l-3.45 6.64a.31.31 0 0 0-.11.31h.07l-.42.45-.45.8-.41.44-.45.8-.42.44-.41.45zm53.24-70.45l3.31-13.57c.52-2.29.92-4.63 1.6-6.87 1.25-4.12 2.67-8.19 4-12.27-.38 1.4-.77 2.79-1.11 4.2-.06.21.12.49.2.74l.59-.78c1.3-1.44 2.62-2.86 3.91-4.31 2.69-3 5.36-6.07 8-9.1v1.19c-.59 2.59-1.34 5.17-1.75 7.79-2 12.54-5.64 24.28-14.79 33.66a13 13 0 0 0-1.67 2.92l-10.86 12.13-.24-.85v-.45l5.67-8.62.41-1 .41-.83z" class="d"/>
  <path d="M857.33 61.81l-1.19 3.27-.31.71-.09.11-.33.7-.07.08-.29.71-.91 1.28-.29.72-6.83 9.25-.5.77-16.82 16.93a11 11 0 0 1 1.41-2.31c6-5.9 9.7-13.09 12.22-21a8 8 0 0 0 1.54-2.11c1.3-4.23 2.66-8.45 3.63-12.77 1.48-6.59 6.38-9.83 11.74-12.75a1.57 1.57 0 0 0 0 .37l-.17.81-.37 1.23-.26.84c-.09.28-.07.78-.1 1.16l-.32.39.06.87-.09 2.33c0 .26-.05.52-.07.78-.13.68-.26 1.36-.4 2l-.34.41c0 .15.05.31.08.46l-.16 1.54v.81l-.4.8c-.1.61-.24 1.11-.37 1.61zm-96.9 118.34v-2.79l-.3-2.59-.12-1.84-.26-1.36c0-.48-.09-1-.14-1.44s-.19-.91-.28-1.37l-3.28-23.64c.26-.59.55-1.17.77-1.77l4.64-13.44v3.58l.1 2.43.31 1.57.13 1.46.29 1.38h.11l1.63 10.22.27 1 .92 6.64.38 1.81.1 1.59a.4.4 0 0 0 0 .37l.06.91-.05 4.25-.27 2.09-.26.61v2.16l-.79 2.54-.57 1.87q-1.47 2.11-3 4.22a1.86 1.86 0 0 1-.49.37z" class="g"/>
  <path d="M768.11 123.08c1.35 9.47 3.08 18.92 3.89 28.44.4 4.73-.9 9.61-1.43 14.42l-4.13 7.2-.44-.56.5-4.64v-6.39l-.5-1.58v-1.81l-1.12-7.43q-.94-5.64-1.91-11.29l-.44-11.07.29-1.68.33-.43.29.88.2 2.86a10.41 10.41 0 0 0 .27 1.95 27.92 27.92 0 0 0 1.12 2.58c0-.88.07-1.76.11-2.64.39-.16 1.08-.24 1.14-.49.65-2.76 1.23-5.54 1.83-8.32z" class="g"/>
  <path d="M786.89 189.97c-4.15 1.33-8.31 2.62-12.43 4-2 .68-3.95 1.55-5.91 2.36-.21.09-.35.35-.52.53.21.08.42.26.63.24 5.2-.46 10.4-1.13 15.61-1.36 4.87-.22 7.19-3.86 10.06-6.8a35.25 35.25 0 0 0 3-4l6.43-2.6c.28-.11.59-.17.88-.26a4.33 4.33 0 0 1-.39.81q-3.85 4.91-7.73 9.8l-2.09 1.54-.35.44c-6.75 3.14-14 3.57-21.24 3.83-6.14.23-12.31.69-17.39 4.89-.1.09-.48-.15-.73-.23l4.15-7.63 2-2.42c3-.54 6.06-1.25 9.12-1.6 5.63-.64 11.28-1.06 16.91-1.58z" class="c"/>
  <path d="M860.95 79.41l5.62.53 1.12.59a10.19 10.19 0 0 1-1.09.15c-1.47 0-2.93 0-4.39.06l-3.16-.12-3.79-.47v.56h2.79l11 2.82c.24.06.49.07.74.11a3.57 3.57 0 0 1-.55.66c-.53.4-1.1.74-1.65 1.1l-4.29 1.3a25 25 0 0 0-3.43-.38 6.38 6.38 0 0 0-2 .73 18.91 18.91 0 0 0 1.69 1.11 7.74 7.74 0 0 0 1.39.42c-.41.29-.83.58-1.22.89s-.56.54-.83.81a17 17 0 0 1-2.83.79c-5.11.54-10.22 1-15.33 1.45a2.72 2.72 0 0 1-.86-.19 4.67 4.67 0 0 1 .55-1c2.3-2.47 4.67-4.87 6.92-7.39a29.35 29.35 0 0 0 2.31-3.36 1.66 1.66 0 0 1 .13-.27z" class="g"/>
  <path d="M858.95 90.28c.27-.27.53-.56.83-.81s.81-.6 1.22-.89a7.74 7.74 0 0 1-1.39-.42 18.91 18.91 0 0 1-1.69-1.11 6.38 6.38 0 0 1 2-.73 25 25 0 0 1 3.43.38l-1.37.79c.57 0 1.13.08 1.7 0 1.88-.1 3.76-.23 5.64-.35-3.07 4.74-6.28 9.34-11.6 11.88l-11.59 3.18c1.7-1 3.42-2 5.09-3.08 3.67-2.35 7.33-4.71 10.92-7.16.44-.3.46-1.21.68-1.84a9 9 0 0 0-2.16.13c-1.89.58-3.68 1.68-5.59 1.89-4.87.53-9.77.65-14.66 1a14.63 14.63 0 0 0-3.06 1l-2.24.69-.29-.31c4.33-4.34 8.64-8.69 13-13a7.1 7.1 0 0 1 1.88-1 29.35 29.35 0 0 1-2.31 3.36c-2.25 2.52-4.62 4.92-6.92 7.39a4.67 4.67 0 0 0-.55 1 2.72 2.72 0 0 0 .86.19c5.11-.46 10.22-.91 15.33-1.45a17 17 0 0 0 2.83-.79l.15.08zm7.85-2.18l-2.36 1.22 2.47-.81c.06 0 .1-.09.14-.14l.24-.38zm1.27-.44l-.11-.13-.07.22a.48.48 0 0 0 .12 0l.04-.09zM749.24 205.59l-3.2-26c.22.12.58.19.65.36 1.64 4.34 3.24 8.7 4.85 13l.31.88a2.74 2.74 0 0 0 .2-.81c-.34-4-.75-8-1-12.06-.12-1.69 0-3.4 0-5.1l2.74 16.08c.48 5.23-2.43 9.31-4.55 13.65zm8.26-41.73l1.88 19.29-4.26 10.41a3.9 3.9 0 0 1-.66-.81 2 2 0 0 1 0-.79l-.06-7.92c.57-3.47 1.16-6.94 1.71-10.41.45-3.25.94-6.51 1.39-9.77z" class="c"/>
  <path d="M778.71 153.69c1.27-4.72 3.49-9.43 3.58-14.18.11-5.45-1.66-10.93-2.61-16.4-.07-.46-.11-.92-.21-1.37-1.63-7.61-3.08-15.24-1.37-23.05l.59.44.19-.84.73.1c-2.52 9.15-.34 18 1.9 26.79 1.91 7.53 2.92 15 .5 22.66l-1.14 4.11-.72 1 .63-.25.07.06zm14.22-62.21c-.12 5.91-.72 11.85-.26 17.71.73 9.17 2.18 18.28-1.84 27.08l-.43.41-.46.83-1.6 5.12c0 .1-.09.19-.13.28l.24-.17a.66.66 0 0 0 .34-.06l-1.63 1.58a1.45 1.45 0 0 0 0-.36 34.17 34.17 0 0 1 .89-4.09c1.29-3.82 2.7-7.6 4.06-11.4a11.78 11.78 0 0 0 .62-3.09c-.55-8.35-1.21-16.71-1.83-25.06.21-3 .34-6 .67-9a24.25 24.25 0 0 1 1-3.84zm50.4-18.42c-2.52 7.91-6.25 15.1-12.22 21a11 11 0 0 0-1.41 2.31l-1.31.67a13 13 0 0 1 1.67-2.92c9.15-9.38 12.82-21.12 14.79-33.66.41-2.62 1.16-5.2 1.75-7.79l.75 1.2z" class="b"/>
  <path d="M842.87 95.24c-3.17 1.48-6.6 2.59-9.45 4.54s-4.83 4.61-7.21 7l-5.7 2.75c3.85-7.95 15.2-15.19 22.36-14.29z" class="c"/>
  <path d="M822.91 147.1c-9.53 2.68-19.11 5.21-28.57 8.11-5 1.53-9.77 3.72-14.64 5.61l-1.58.86.43-1.68a2.54 2.54 0 0 0 0 .39s.1.1.12.09l4.23-2.43 30.39-9 6.42-2.37z" class="b"/>
  <path d="M806.75 125.66l-6 8.62c-1.14 1.65-2.22 3.34-3.33 5l-.09-.14-.4.6-4.18 2.43-.41-.4c4-4.89 8-9.8 12.07-14.63a9.29 9.29 0 0 1 2.34-1.48z" class="c"/>
  <path d="M754.67 203.19c.25.08.63.32.73.23 5.08-4.2 11.25-4.66 17.39-4.89 7.29-.26 14.49-.69 21.24-3.83 0 .16 0 .31.07.47l-4 2-8 1.6-1.64.07-3.58.3c-8.12 0-16.08.6-22.73 6.09l.52-2.04zM860.95 79.41l-11.11.92-1.4-1.3 3.3-3.18 9.68-8.36.91.87a2.08 2.08 0 0 1-.12.32c-3.17 2.58-6.36 5.13-9.49 7.76a24.65 24.65 0 0 0-2.33 2.55l3.45-.67 1.8-.09.42-.09.88-.14z" class="b"/>
  <path d="M822.1 109.81c-1.9 2-3.83 4-5.7 6-2.12 2.28-4.18 4.62-6.26 6.94v-.05l-.45.43-2.94 1.33c.66-.81 1.27-1.68 2-2.43 3.38-3.52 6.79-7 10.2-10.51zm-33.7 32.82l1.6-5.12.46-.83.43-.41c1.3-1.45 2.55-3 3.93-4.32a13 13 0 0 1 2.35-1.52l-.22 1.49-.39.81-7.26 9.43-.4.57a.66.66 0 0 1-.34.06zm16.39-22.39c1.77-1.51 3.51-3.05 5.31-4.5a16.66 16.66 0 0 1 2.25-1.3l-11 12.68v-1.22l.81-1.23 2.4-4 .4-.42zm-21.88 37.81l-4.23 2.43s-.12 0-.12-.09a2.54 2.54 0 0 1 0-.39l.44-.81.55-.41 1.44-2 .46-.77.42-.81.42-.43.47-.42 1.94-1.92 1.58-1.72 1.23-.82h.8l-4.24 6.5c-.58.53-.85 1.1-1.16 1.66zm-4.79 3.63l1.58-.86c-1.18 1.88-2.37 3.74-3.52 5.63-.46.76-.82 1.59-1.23 2.39v-.08l-.4.4-2.59 1.83-.29-.29zm39.17-53.36l.24.85c-1 1.2-1.89 2.4-2.89 3.56-.07.07-.59-.25-.91-.39l9.24-14v.93l-5.67 8.62s-.12.11-.11.14a1.77 1.77 0 0 0 .1.29zm-23.65 34.3l-2.3 4.57-.82.44a2.08 2.08 0 0 0 0 .35l-1.65.79-1.59 1.23-.7.14-.35-.32 6.25-7zm-6.41 1.28a1.45 1.45 0 0 1 0 .36l-.44.8-.41.42-.55.4-4.63 6h-.41l1.26-4.07c1.21-1.4 2.37-2.85 3.67-4.17.18-.2.98.17 1.51.26z" class="c"/>
  <path d="M822.1 109.81l-3.16 1.69.48-1.29.71-.36.42-.42 5.7-2.75c2.41-.71 4.82-1.42 7.24-2.1a3.61 3.61 0 0 1 1.08 0c-.3.15-.59.32-.9.45z" class="e"/>
  <path d="M760.85 193.14l-2 2.42.14-2 .72-.36.42-.83 6.45-3.6 1.15.34z" class="b"/>
  <path d="M760.43 180.15v.79a1.86 1.86 0 0 0 .49-.37l3-4.22-3.66 7.26s-.13 0-.15-.08a2.59 2.59 0 0 1-.11-.37l.43-3.01z" class="d"/>
  <path d="M799.58 125.81l1.65-.33.06.42-1 2.43-2.47 3.27-.33-.26 1.77-4.59.43-.86z" class="c"/>
  <path d="M851.74 75.81l-3.3 3.18a.39.39 0 0 0-.3.06l-.36-.39 3.86-4.48.1 1.63zM748.41 200.38l.09 5.45.47.58-1.31 1.18v-4.62z" class="g"/>
  <path d="M747.68 202.97v4.62l-.32-.38c.09-1.4.2-2.83.32-4.24z" class="f"/>
  <path d="M766.05 172.58l.44.56-1.93 1.34.79-2.54z" class="d"/>
  <path d="M786.1 150.72l-1.58 1.72.84-1.74zm61.68-72.02l.36.39-1.62.35.5-.77z" class="b"/>
  <path d="M800.27 128.33l1-2.43v1.22l-.43 1z" class="f"/>
  <path d="M753.32 206.4c-.16.52-.33 1-.5 1.57l.5-1.57zm27.55-54.46h.41l-.41.79-.07-.06.09-.74z" class="b"/>
  <path d="M792.5 142.72l-.69-.19.52-.76.41.4-.25.56zm-43.53 63.69l-.47-.58.76-.27z" class="c"/>
  <path d="M781.35 155.97l-.46.77zm-6.98 5.91l.45-.8z" class="b"/>
  <path d="M760.05 192.36l-.42.83z" class="g"/>
  <path d="M773.56 163.07l.45-.8z" class="b"/>
  <path d="M765.28 181.95l-.05.6-.56-.19z" class="d"/>
  <path d="M797.32 131.94l-.35.73c0-.25 0-.51-.07-.77h.41z" class="c"/>
  <path d="M796.9 131.9c0 .26 0 .52.07.77h-.46z" class="f"/>
  <path d="M759.68 193.16l-.72.36z" class="g"/>
  <path d="M800.88 128.07l.43-1z" class="c"/>
  <path d="M781.75 155.17l-.42.81zm-28.03 50.44l-.43.81.43-.81zm25.23-46.44l-.44.81z" class="b"/>
  <path d="M786.1 150.72h-.74l.53-.56.25.24c0 .12-.05.24-.07.36zm-14.81 20.84l.33-.86.29.29-.23.57h-.42z" class="c"/>
  <path d="M786.81 145.08l.44-.8-.44.8z" class="b"/>
  <path d="M820.13 109.89l-.71.36z" class="c"/>
  <path d="M773.19 163.5l.42-.44z" class="b"/>
  <path d="M771.27 171.54l-.11.13.13-.11z" class="c"/>
  <path d="M772.82 163.92l.41-.45zm-18.71 41.29l-.42.42zm34.74-62.5l.4-.57zm-2.42 2.78l.41-.42zm-.52.4l.55-.4z" class="b"/>
  <path d="M820.52 109.49l-.42.42zM797.8 131.6l-.48.34.17-.58z" class="c"/>
  <path d="M809.68 123.15l.45-.43z" class="g"/>
  <path d="M775.15 160.64a.31.31 0 0 1 .11-.31zm-.35.47l.42-.45zm-.75 1.19l.41-.44z" class="b"/>
  <path d="M785.89 150.14l.37-.4.34.32-.46.32z" class="c"/>
  <path d="M782.58 154.36l-.47.42zm-.44.45l-.42.43z" class="b"/>
  <path d="M834.7 95.26l-.45.15.17-.44z" class="c"/>
  <path d="M834.42 94.97l.4-.4.29.31-.41.38z" class="c"/>
  <path d="M779.45 158.81l-.55.41z" class="b"/>
  <path d="M851.74 75.81c0-.54-.06-1.09-.1-1.63h.07l.4-.72.06-.09.34-.36.35-.5 1.19-1.51a17.92 17.92 0 0 0 3.26-2.32c5.12-5.73 5-13 5.66-20l.37-2.82h.11c1.16 1.7 1.61.76 2.19-.49a20.7 20.7 0 0 1 1.82-2.71c-.64 2.38-1.3 4.75-1.93 7.13-.19.73-.3 1.49-.44 2.24l1.37-1.85 6.69-12.21-.14-.13 1.07-.75.54 1.18-13.1 25.75-.34.53.62-.24 6.25-8.13 2.78-1.07-5.44 7.15-3.94 5.23zm3.9 2.42l-1.8.09c-.12-.17-.37-.47-.34-.5 2.34-2.22 4.73-4.37 7-6.64a14.57 14.57 0 0 0 1.68-2.5 2.08 2.08 0 0 0 .12-.32l2.27-1.68.36-.19h3.22l2.64-.18 1.75.67.38-.06h1.59l1.27.36 2 .17 4.26.22.21.23-11.2 2.78c-.45.11-.88.27-1.31.41a6.58 6.58 0 0 0 1.28.35c.92.06 1.85 0 2.78.05a29.41 29.41 0 0 1-3.45 2c-2.42 1-4.9 1.79-7.36 2.67l-5.13.19-.17.06.13.26h.06l10.16 1a3.24 3.24 0 0 1-.31.24l-9.52.07-1.22.1-.88.14z" class="d"/>
  <path d="M879.94 55.37l15.41-2c-3.2 1.88-6.39 3.77-9.61 5.62a24.61 24.61 0 0 1-2.39 1.09l-3.59-.27h-3.4a7 7 0 0 0 1.21 1.47c1 .7 2.07 1.25 3.11 1.86-1.21.2-2.42.47-3.65.59-3.22.32-6.46.58-9.69.86l11.63-9.56z" class="g"/>
  <path d="M819.72 146.73l-6.42 2.37a36 36 0 0 1 5-2.73c8.43-3 12.74-9.74 16.2-17.33l1.59-.77a1.2 1.2 0 0 0 .2 0l3.68-1.35a31.64 31.64 0 0 1-.59 4.69c-1.43 5.25-5.44 8.23-9.92 10.62-3.14 1.66-6.48 3-9.74 4.5zm13.6-30.46c.77-.64 1.44-1.58 2.32-1.88 6.16-2.05 9.95-6.68 13.28-11.86l9.24-2.24a35.39 35.39 0 0 1-24.84 15.98zm10.01-43.21l4-19.19a21.19 21.19 0 0 1 13.51-12.37 4.8 4.8 0 0 1 1.37 0 .44.44 0 0 0-.16.31l-1.23 2.81-.32.46-.3.4c-5.36 2.92-10.26 6.16-11.74 12.75-1 4.32-2.33 8.54-3.63 12.77a8 8 0 0 1-1.5 2.06zm-20.38 58.12c.46-.38.86-1 1.4-1.12 7.81-2.38 12.23-8.67 17-14.59 1.33-.6 2.65-1.2 4-1.78.62-.27 1.27-.47 1.9-.71a14.93 14.93 0 0 1-.38 2.12c-1.95 6-6.76 9.11-12 11.84zm79.1-102.37l-4.83 6-.4.42-.39.44.61-.25.46-.33 12.31-12.93c2.48-2.59 5-5.16 7.46-7.74l.35.32-2.25 3.29-10.4 11.78-9.61 9.21a10.54 10.54 0 0 0-1.87.52c-2.5 1.26-5 2.58-7.44 3.88l15.58-14.92zm-2.28 17.79l2.24-1a2.23 2.23 0 0 0 .26.27c-7 4.23-13.93 8.59-22.51 8.74l8.41-6.8 11.94-3.77a3.82 3.82 0 0 1 1 0 4.06 4.06 0 0 1-.81.65c-1.89.81-3.79 1.59-5.69 2.37l-1.36.78c-2.09 1-4.19 1.91-6.28 2.88-.14.07-.22.29-.33.43a1.84 1.84 0 0 0 .53 0l10.32-3.62 1.56-.82z" class="c"/>
  <path d="M881.14 46.96l-.19.46-.78 1.22-1.12 2.84v2l-13.16 10.89.17-1c3.08-4.75 6.15-9.5 9.27-14.22.21-.32.76-.42 1.16-.62l-.28.82.6-.51 1.24-1.5 3.67-2.39.12.57-.48.67c-.07.29-.15.53-.22.77z" class="d"/>
  <path d="M867.34 64.61c3.23-.28 6.47-.54 9.69-.86 1.23-.12 2.44-.39 3.65-.59-1-.61-2.13-1.16-3.11-1.86a7 7 0 0 1-1.21-1.49h3.44c2.56.34 5.17 1.15 7.66.89s4.78-1.6 7.16-2.46l-4.83 3.39-9.09 1.4h7.52c-3.07.8-6.14 1.62-9.23 2.4-.69.17-1.42.23-2.13.34l-8.65.18-3 .37zM846.6 51.48c-2.68 3-5.35 6.07-8 9.1-1.29 1.45-2.61 2.87-3.91 4.31l4.32-10.18 4.82-5.6 1.21-.83 1.21-.81 3.27-.73a372.81 372.81 0 0 0-2.49 4.22l-.43.46zm49.69-9.52c1.54-.39 3.09-.8 4.64-1.16a6.25 6.25 0 0 1 1.15-.05 3.67 3.67 0 0 1-.87.68c-2.94 1-5.9 2.06-8.86 3.06a2.42 2.42 0 0 1-.76 0c.15-.21.25-.5.46-.63 5.18-3.41 10.31-6.9 15.58-10.16a62.7 62.7 0 0 1 6.83-3.22l.35.35c-3.33 2.33-6.55 4.84-10 6.92a87.34 87.34 0 0 1-8.66 4l-.44.35zm-33.34 6.69c-.69 7-.54 14.3-5.66 20a17.92 17.92 0 0 1-3.24 2.35c5.08-6.89 6.75-14.91 7.68-23.17l.16-1.27.63-.3zm-35.52 102.29c.63-1.47 1.31-2.92 1.86-4.41a12.6 12.6 0 0 0 .41-2.22l7.65-5.35.65-.43c0 .31.1.7-.05.93-1.93 3-3.9 5.9-5.85 8.85l-.43.38-.6.42-.69.38z" class="c"/>
  <path d="M886.05 43.4c2.48-1.3 4.94-2.62 7.44-3.88a10.54 10.54 0 0 1 1.87-.52l-8 7.58-7.2 5.67 1.26-3.58z" class="g"/>
  <path d="M878.05 47.39l-1.24 1.5-.32-.31c-.4.2-1 .3-1.16.62-3.12 4.72-6.19 9.47-9.27 14.22l-.7-1.16 5.44-7.15 5.61-12.36c.36 0 .83.18 1 0a8.07 8.07 0 0 0 1.11-1.34l-.85 2.4-1 2.94 1.89-2.47.76-1.24.44-.4 1.26.11z" class="b"/>
  <path d="M878.05 47.39l3-4.65.42-.42.41-.41.41-.42.05.07 8.06-7.23 7.65-6.29.3.32-10.08 10.3-.44.4-.41.41-.4.4-3.19 3.19-2.08 1.94zm-1.64-4.64l-5.61 12.36-2.75 1.07c2.81-5.8 5.6-11.62 8.46-17.39.3-.61 1.05-1 1.59-1.5-.19.68-.37 1.37-.58 2l-1.11 3.46z" class="c"/>
  <path d="M880.15 52.25l7.2-5.67.82 1.25-8.41 6.83-.8.42-11.62 9.53-2.22 1.71a.27.27 0 0 0-.16.17l-.36.19c-.37-.18-.88-.28-1-.57s.19-.82.47-1a10.58 10.58 0 0 1 1.87-.75l13.11-10.91h.32l.83-.71v-.51zm-57.2 78.93l11.94-4.24-.79 1.56 2-.23-1.59.77c-7 1.89-14 3.79-21 5.65a6.69 6.69 0 0 1-1.73 0 11.82 11.82 0 0 1 1.41-.62c3.27-.98 6.52-1.93 9.76-2.89zm9.33-2.27h-.29s.08.09.13.09.09-.05.16-.09z" class="b"/>
  <path d="M862.94 76.12c2.46-.88 4.94-1.69 7.36-2.67a29.41 29.41 0 0 0 3.45-2l1.59-.07a6.41 6.41 0 0 0 .62.38l.22-.18-.52-.23 4.31-.91.28.27-10.2 4.68-.68.09-1.32.33zm20.41-15.99a24.61 24.61 0 0 0 2.39-1.09c3.22-1.85 6.41-3.74 9.61-5.62l2.67-1 .27.29-2.93 3.1c-3.57 2.66-7.31 4.72-12.01 4.32z" class="c"/>
  <path d="M890.32 34.3l-8.06 7.23.63-3.34 1.57-2v-.06l4.49-3.89 1.59-.42zm-23.88 15.89l-1.39 1.85c.14-.75.25-1.51.44-2.24.63-2.38 1.29-4.75 1.93-7.13h-.06l.44-.82 2.18-3.39.33-.51-.66.19-.66.16c1.12-1.57 2.11-2 2.75.33q-2.69 5.78-5.3 11.56z" class="b"/>
  <path d="M866.44 50.19l5.32-11.56 1.23-.78s.15.11.14.13zm2.61-11.89l.66-.16.33.32-2.18 3.39-.44.82h.06a20.7 20.7 0 0 0-1.82 2.71c-.58 1.25-1 2.19-2.19.49a.8.8 0 0 1-.06-.38l1.63-3.64.44-.81.42-.42.43-.43.43-.43.42-.42.81-.44.43-.42.82-.44z" class="c"/>
  <path d="M904.97 29.81l10.38-11.74.48 1.41v.75l-4.85 4.79-2.4 2.79-2.4 2.83h-.41zm-21.62 30.32c4.66.4 8.44-1.66 12-4.29l.94 1.53-1.36.5-.37.38c-2.38.86-4.71 2.2-7.16 2.46s-5.1-.55-7.66-.89zm-25.19 40.16l-9.24 2.24c-.72.12-1.43.29-2.16.34-1.16.08-2.32.07-3.49.1l2.86-.72 11.59-3.18.65.17v-.05l-.2.66v.45zm35.05-52.48l1.36-.78 2.85.45-10.32 3.62a1.84 1.84 0 0 1-.53 0c.11-.14.19-.36.33-.43 2.09-1 4.19-1.92 6.28-2.88l.48.27.09-.19z" class="b"/>
  <path d="M877.67 43.81l.89-2.37 5.57-6.89-.38 2.07-4.4 6.42-.76 1.24z" class="c"/>
  <path d="M906.72 31.5l-.89-.58.38-.3 4.84-2.81 1.63-.81.43-.43.58-.16.73.72c0 .21-.07.42-.1.63l-6.83 3.62z" class="b"/>
  <path d="M867.99 77.59l-10.16-1 13.28-.3h.07l1.28.7z" class="g"/>
  <path d="M871.11 76.32l-13.28.3h-.06a1.12 1.12 0 0 1 0-.32l5.13-.19 5.15-.3z" class="e"/>
  <path d="M910.95 25l4.85-4.79-4.41 5.6z" class="c"/>
  <path d="M869.32 87.19c-1.88.12-3.76.25-5.64.35h-1.7l1.37-.79 4.29-1.3z" class="b"/>
  <path d="M862.21 80.74c1.46 0 2.92 0 4.39-.06a10.19 10.19 0 0 0 1.09-.15l-1.12-.59c1.26 0 2.53-.09 3.79-.08a17.82 17.82 0 0 1 1.77.22 6.73 6.73 0 0 1-1.83.59c-2.69.08-5.39.06-8.09.07zm45.16-49.31l6.83-3.62zm3.68-3.62l-4.83 2.82 2.4-2.83.86.4z" class="c"/>
  <path d="M888.97 32.23l-4.49 3.89 3-3.44 1.11-.95z" class="e"/>
  <path d="M868.17 65.95l8.65-.18v.46c-1.29.16-2.58.29-3.87.42a2.83 2.83 0 0 0 0 .29l-.38.06-1.75-.67-2.64.18zm20.01-2.92h-7.52l9.09-1.4z" class="b"/>
  <path d="M887.43 32.68l-3 3.44v.06l-.69.47.38-2.07 1.91-2z" class="g"/>
  <path d="M858.16 77.9l9.52-.07 1.94.2a14.54 14.54 0 0 1-2 .23c-3.13-.1-6.29-.24-9.46-.36z" class="b"/>
  <path d="M887.43 32.68l-1.38-.12 3.58-2.89.35.34-1.43 1.72z" class="c"/>
  <path d="M909.44 28.21l-.86-.4 2.37-2.81.44.81z" class="g"/>
  <path d="M892.98 30.23l-2.39 1.58 2.41-2.38c-.03.26-.02.53-.02.8z" class="b"/>
  <path d="M883.8 43.06l3.19-3.19z" class="g"/>
  <path d="M872.46 77.02l-1.28-.7c.46 0 .92-.06 1.38-.07h1.76z" class="e"/>
  <path d="M881.72 45l2.08-1.94-2 2.51z" class="g"/>
  <path d="M865.05 41.81l-1.63 3.64a97.27 97.27 0 0 1 1.63-3.64zm-2.1 6.84l-.45-2.39.82-.43c-.12.98-.27 1.88-.37 2.82z" class="b"/>
  <path d="M858.05 80.71h-2.83v-.56l3.79.47z" class="e"/>
  <path d="M860.88 44.6l1.23-2.79z" class="b"/>
  <path d="M877.79 67.51l-2-.17z" class="e"/>
  <path d="M874.6 38.28l-.55-1.18 1.13-.67.32.35z" class="c"/>
  <path d="M880.17 48.64l.78-1.22.45 1.26z" class="e"/>
  <path d="M912.61 27.02l-1.63.81z" class="c"/>
  <path d="M858.99 53.43l.09-2.33zm-.47 2.81l.4-2-.4 2z" class="e"/>
  <path d="M899.05 46.71l-1.63.79z" class="b"/>
  <path d="M901.63 28.48l.77-.87.34.36-.69.84z" class="c"/>
  <path d="M892.98 30.23v-.8l.62.48zm-35.65 31.58l.41-1.59c-.14.59-.28 1.09-.41 1.59zm.79-3.17c0-.51.11-1 .16-1.54l-.16 1.54zm45.93-38.25c.11.05.27.07.3.15a.3.3 0 0 1-.13.29.34.34 0 0 1-.29-.12c0-.08.12-.21.12-.32z" class="e"/>
  <path d="M879.97 70.48l.8-.35-.52.62z" class="c"/>
  <path d="M872.95 66.94a2.83 2.83 0 0 1 0-.29l1.57.33zm43.26-47.57l.36-.57.24.22-.54.37z" class="e"/>
  <path d="M913.8 25.81l.67-.61.11.22-.8.37z" class="c"/>
  <path d="M869.36 75.48l.68-.09c0 .14.06.27.08.4z" class="e"/>
  <path d="M914.46 30.48l.73-.52-.38.87zm-35.49 24.57l.8-.42.17.74zm34.59-28.57l-.58.16.82-.81c-.09.2-.16.43-.24.65z" class="c"/>
  <path d="M875.66 71.39l.52.23c-.08.06-.19.2-.22.18a6.41 6.41 0 0 1-.62-.38.58.58 0 0 1 .32-.03z" class="d"/>
  <path d="M859.7 47.81l.42-1.22z" class="e"/>
  <path d="M914.19 27.81c0-.21.06-.42.1-.63h.52z" class="c"/>
  <path d="M859.34 49.81c0-.38.07-.77.1-1.16l-.1 1.16z" class="e"/>
  <path d="M861.87 46.56l-.16 1.27.16-1.27z" class="b"/>
  <path d="M898.4 27.64l.57-.63.07.07-.4.81a1.88 1.88 0 0 0-.24-.25z" class="c"/>
  <path d="M869.05 38.26l-.82.44zm-1.25.8l-.81.44z" class="b"/>
  <path d="M903.59 26.81l-.51.71-.32-.29.54-.7zm3.13 4.69l.68-.09-.82.4.14-.31z" class="c"/>
  <path d="M831.67 148.69l.43-.38z" class="b"/>
  <path d="M915.79 20.23v-.75l.38-.11h.06zm-25.68 9.13l.62-.24-.37.5a3.07 3.07 0 0 0-.25-.26zm14.28 10.65c-.11.07-.19.16-.29.17s-.14-.11-.21-.17.1-.11.14-.11a2.92 2.92 0 0 1 .36.11z" class="c"/>
  <path d="M855.83 65.81l.31-.71c-.09.25-.21.48-.31.71z" class="e"/>
  <path d="M902.5 45.35l.76-.17-.51.42-.25-.25zm.77-4.86a1.14 1.14 0 0 1-.37.12c-.06 0-.13-.14-.19-.21a1 1 0 0 1 .34-.13c.07.01.14.14.22.22z" class="c"/>
  <path d="M855.41 66.63l.33-.7zm4.83-21.2l.3-.4v.37l-.3.4a1.57 1.57 0 0 1 0-.37z" class="e"/>
  <path d="M865.42 41.07l-.44.81zm-4.83 4.33v-.37c0-.12.22-.3.32-.46z" class="b"/>
  <path d="M855.05 67.42l.29-.71z" class="e"/>
  <path d="M882.05 67.73l.67-.13-.46.36z" class="d"/>
  <path d="M852.11 73.51l-.4.72.4-.72z" class="g"/>
  <path d="M853.85 69.42l.29-.72zm3.89-9.18l.4-.8z" class="e"/>
  <path d="M899.77 46.6l-.73.13z" class="b"/>
  <path d="M881.14 46.96l.22-.72-.22.72z" class="e"/>
  <path d="M904.65 25.47l-.36.46-.25-.26.39-.41zm-.99.63l.38-.43.25.26-.34.45z" class="c"/>
  <path d="M852.51 73.06l-.34.36z" class="g"/>
  <path d="M903.3 26.53l.36-.43.29.28-.36.43zm9.75.08l-.43.43z" class="c"/>
  <path d="M859.05 50.23l.32-.39z" class="e"/>
  <path d="M898.97 27.01l.21-.28c0 .12-.1.23-.14.35z" class="c"/>
  <path d="M858.2 56.64l.34-.41zm-.08 2.47v-.48.48z" class="e"/>
  <path d="M894.57 58.25l.37-.38zm9.86-32.99l.38-.17c0 .13-.11.26-.16.38z" class="c"/>
  <path d="M846.56 51.47l.43-.46z" class="d"/>
  <path d="M905.42 24.25l-.15.33.11-.37zm-.04-.04l.22-.27-.18.31zm-7.33 28.25l.44-.09-.17.38zm19.2-38l.45-.15c0 .16-.07.32-.11.47zm-42.06 21.97l.45-.1c0 .15-.09.3-.13.45l-.32-.35z" class="c"/>
  <path d="M865.81 40.67l-.42.42zm-3.76 1.14a.44.44 0 0 1 .14-.34 1.42 1.42 0 0 1 0 .29s-.05.05-.14.05zM831.11 149.1l.6-.42z" class="b"/>
  <path d="M906.58 31.81l-.06.17.08-.15z" class="c"/>
  <path d="M867.05 39.47l-.42.42z" class="b"/>
  <path d="M887.39 39.46l.41-.41zm-.34.35l.4-.4zm.74-.75l.44-.4z" class="g"/>
  <path d="M868.2 38.66l-.43.42zm-1.59 1.2l-.43.43zm-.4.4l-.43.43z" class="b"/>
  <path d="M890.36 29.62l-.39.39-.35-.34.49-.31a3.07 3.07 0 0 1 .25.26zm11.69 16.03l.49-.3.25.25-.48.32a2.23 2.23 0 0 1-.26-.27zm-3.41-17.76l-.33.46-.3-.31.4-.4a2.73 2.73 0 0 1 .23.25zm4.41-.37l-.35.45-.33-.36.36-.38zm3.16 3.1l-.38.3a.72.72 0 0 0 0-.29zm-48.07 69.68v-.45a2.48 2.48 0 0 0 .38 0z" class="c"/>
  <path d="M858.53 99.87a2.48 2.48 0 0 1-.38 0l.2-.66z" class="e"/>
  <path d="M858.33 99.2h.02l.03.05-.05-.05z" class="c"/>
  <path d="M757.5 163.86c-.48 3.26-.94 6.52-1.44 9.77-.55 3.47-1.14 6.94-1.71 10.41l-4.91-19.65a5.78 5.78 0 0 1-.17-1.37v-3.79c.39 1.14.77 2.29 1.19 3.43a4.87 4.87 0 0 0 .58.94 5.8 5.8 0 0 0 .17-1.07c-.06-1.66-.16-3.32-.24-5 .35-.85.71-1.7 1-2.57.93-2.48 1.85-5 2.78-7.45zm-6.45 12.02c0 1.7-.15 3.41 0 5.1.28 4 .69 8 1 12.06a2.74 2.74 0 0 1-.2.81l-.31-.88c-1.61-4.35-3.21-8.71-4.85-13-.07-.17-.43-.24-.65-.36 0-.25-.09-.51-.14-.76.18-.86.39-1.71.55-2.57l2-11.5z" class="d"/>
  <path d="M768.11 123.08c-.6 2.78-1.18 5.56-1.85 8.32-.06.25-.75.33-1.14.49-1.56-6.84 0-13.27 2.58-19.57l1.33-1.23-.18.77-.24.81zm-19.64 41.65l-2 11.5c-.16.86-.37 1.71-.55 2.57l.45-15.05c.29-.92.57-1.85.89-2.76a9.72 9.72 0 0 1 .59-1.16l.4 1.34.14.51z" class="c"/>
  <path d="M761.5 129.91l-4.64 13.44c-.22.6-.51 1.18-.77 1.77a22.48 22.48 0 0 1 5.59-18v.44l-.18 2.35z" class="d"/>
  <path d="M754.84 147.53c-.93 2.48-1.85 5-2.78 7.45-.33.87-.69 1.72-1 2.57l-.09-5.1c0-.16.09-.33.14-.49l3.22-10.21a2.61 2.61 0 0 1 .41-.61 3.5 3.5 0 0 1 .2.82c-.05 1.85-.08 3.71-.1 5.57z" class="c"/>
  <path d="M750.16 157.44l-.56.66c-.11-.28-.32-.56-.3-.83s.27-.46.41-.69zm11.53-29.92v-.44l1.12-.39-.29 1.68-.83-.85zm1.93 2.48l-.2-2.86.2 2.86z" class="f"/>
  <path d="M760.13 174.81l.3 2.59z" class="d"/>
  <path d="M763.74 124.86l-.43.48a1.42 1.42 0 0 1-.28-.39.39.39 0 0 1 .21-.3 1.78 1.78 0 0 1 .5.21z" class="f"/>
  <path d="M759.75 171.57l.26 1.36zm-.42-2.76l.28 1.37c-.09-.51-.19-.96-.28-1.37z" class="d"/>
  <path d="M748.37 161.68l-.14-.51.14.51zm2.68-9.72c0 .16-.1.33-.14.49.07-.16.14-.33.14-.49z" class="f"/>
  <path d="M801.31 172.41c2.59-1.48 5-3.29 7.78-4.39a30.85 30.85 0 0 0 13.08-10.4 3.5 3.5 0 0 0 .34-1.12l5.16-2.23.18.19-1.67 3.09a.51.51 0 0 0-.13.35l-.43.81-.41.42-1.21 1.58-.42.42-.42.43v-.06c-6.11 5.82-13.68 8.99-21.85 10.91zm-2.4 9.15c1.75-1 3.51-2.06 5.26-3.11.42-.26.8-.59 1.2-.89l5.81-2.14.3.3a31.58 31.58 0 0 1-19.43 9.45l1.19-1.44 4-1.09zm8.37-5.31c.7-1.22 1.46-2.41 2.07-3.67a7 7 0 0 0 .31-1.87l8.76-4.07.31.32zm11.14-9.61l.75-.29-.44.61zm-6.72 8.5l.45-.29.13.13-.51.22zm.07.06l-.29.52-.3-.3.52-.28z" class="c"/>
  <path d="M743.67 175.99l.4-.69.17.57z" class="f"/>
  <path d="M746.45 197.17l.09-.15-.09.15z" class="d"/>
  <path d="M830.97 59.9c-2.3 1-4.84 1.67-6.84 3.08-2.38 1.69-4.3 4-6.42 6.08l2.05-5.18.43-.81.48-.5 10.31-6.89 2.24-.52c-.31.68-.61 1.37-.93 2zm4 .83c-1.35 4.08-2.77 8.15-4 12.27-.68 2.24-1.08 4.58-1.6 6.87.59-5.65.66-11.44 2-16.91.72-2.92 3.65-5.3 5.58-7.93z" class="c"/>
  <path d="M834.97 60.73l2-5.7h.46l1.59-.35-4.37 10.21-.59.78c-.08-.25-.26-.53-.2-.74.34-1.41.73-2.8 1.11-4.2z" class="b"/>
  <path d="M826.05 93.44l-2.33 4.06 2-4.84z" class="f"/>
  <path d="M837.38 55.06zM778.1 98.69c-1.71 7.81-.26 15.44 1.37 23.05.1.45.14.91.21 1.37-.92-2.19-2.2-4.3-2.68-6.59-.73-3.48-.91-7.08-1.32-10.63 0-.38-.09-.75-.13-1.13a5 5 0 0 0-.72.82c-1.2 2.3-2.35 4.63-3.58 6.91-.18.32-.74.43-1.12.64l1.63-6.33 7-10.66-.64 2.14z" class="c"/>
  <path d="M768.61 112.67l.24-.81zm.76 4.91c0 .14 0 .28-.05.42l.05-.42zm-26.69 67.17a1.57 1.57 0 0 1-.06-.28l.11-.11a.45.45 0 0 1-.05.39z" class="f"/>
  <path d="M813.41 70.36c-4 2.67-8 5.33-11.93 8a13.51 13.51 0 0 0-1.3 1.1c.52-1.45 1-2.91 1.58-4.36l.43-.81.56-.4 13.28-8.75z" class="c"/>
  <path d="M819.76 63.88l-2.05 5.18c-.57 3.73-1.13 7.45-1.72 11.18a8.27 8.27 0 0 1-.38 1.26 3.88 3.88 0 0 1-.47-1.15c-.09-2.26-.12-4.52-.17-6.77l2-7.34.43-.42v-.81z" class="b"/>
  <path d="M813.41 70.36l2.55-5.21 1.36-.09v.81l-.43.42-4.82 10.43h-.4zm-11.25 3.93l-.43.81c.14-.29.32-.54.43-.81zm18.01-11.21l-.43.81zM802.68 73.9l-.56.4.56-.4zm17.93-11.31l-.48.5z" class="b"/>
  <path d="M787.23 143.9c-.53-.09-1.33-.46-1.55-.24-1.3 1.32-2.46 2.77-3.67 4.17 2.42-7.61 1.41-15.13-.5-22.66-2.24-8.81-4.42-17.64-1.9-26.79l1-2.45.33 1.18v14.19a5 5 0 0 0 .48 1.42 8.08 8.08 0 0 0 .24-1.36v-10.68l.48 2.1 1.95-4.9.64 2.3.19-2.3c0-.13 0-.25.06-.38a6.59 6.59 0 0 0 1-1.32c1.09-2.54 1.9-5.22 3.23-7.62.89-1.6 2.49-2.81 3.77-4.19l.69 2.23 2.13-4a1.19 1.19 0 0 1 .26.11c0 .75-.06 1.51-.08 2.27l-.31.53-2.78 6-.29-4a24.25 24.25 0 0 0-1 3.84c-.33 3-.46 6-.67 9a7 7 0 0 0-.4 1.86c.51 8.77 1.07 17.53 1.61 26.29-1.36 3.8-2.77 7.58-4.06 11.4a34.17 34.17 0 0 0-.85 4z" class="d"/>
  <path d="M793.05 84.37c-1.28 1.38-2.88 2.59-3.77 4.19-1.33 2.4-2.14 5.08-3.23 7.62a6.59 6.59 0 0 1-1 1.32l4-11.68 5.93-7.09c.16.18.49.43.44.54-.53 1.38-1.13 2.75-1.7 4.13a1.31 1.31 0 0 1-.28.09l-.45.81zm5.87-.95c-.53 2.57-1 5.15-1.61 7.71-.11.45-.57.81-.87 1.21l-.41-1.36.4-5.53a19 19 0 0 1 .75-2.24c.47-1 1-2 1.59-3z" class="c"/>
  <path d="M793.37 83.49a1.31 1.31 0 0 0 .28-.09l.06 3.2-.69-2.23-.1-.07z" class="e"/>
  <path d="M796.43 85.45l-.4 5.53-.32-5.5.31-.53.41.5z" class="f"/>
  <path d="M795.84 82.57l.28-.87a2 2 0 0 1 .29.14c-.09.28-.2.56-.31.84a1.19 1.19 0 0 0-.26-.11z" class="d"/>
  <path d="M800.97 160.4l6-.82.46.4-6.53 1z" class="f"/>
  <path d="M824.05 160.66c.41-.52.81-1 1.21-1.58l.37 1.27c0 .1 0 .2-.05.3l-.35.36a1.06 1.06 0 0 1-.31.05z" class="b"/>
  <path d="M807.26 159.52l1.64-.32z" class="f"/>
  <path d="M825.65 158.7l.43-.81-.43.81zm-.38.41l.41-.42z" class="b"/>
  <path d="M828.91 151.94l.07-.29.32.28z" class="d"/>
  <path d="M827.67 154.27l.23-.2c0 .13 0 .26-.05.39z" class="c"/>
  <path d="M826.05 157.9a.51.51 0 0 1 .13-.35 1.55 1.55 0 0 1 0 .29l-.13.06z" class="b"/>
  <path d="M771.29 203.45a6.73 6.73 0 0 1 1.46-.65c4.5-.83 9-1.64 13.52-2.39a5.32 5.32 0 0 1 1.78.4c-5.17 3.27-11 2.54-16.76 2.64z" class="d"/>
  <path d="M791.34 200.81l-.46.41zm-.44.35l-.42.41zm-.42.4l-.4.4zm-6.37-103.68l-1.95 4.9-.48-2.1 3.65-11.15-1.22 8.35zm-3.21-.77l-.33-1.18 1.53-2.86zm1.97-6.43a.72.72 0 0 0 .11-.31l.31-.08c-.4 1-.8 1.89-1.19 2.84.24-.84.51-1.65.77-2.45zm.42-.39l.17-.28-.19.25z" class="c"/>
  <path d="M784.11 97.88l1.21-8.34 3.66-3.72-4 11.68c0 .13-.05.25-.06.38l-.19 2.3z" class="b"/>
  <path d="M775.24 212.28c-.12 0-.24.1-.37.13l-3.71.93 3.71-1.36z" class="e"/>
  <path d="M778.17 98.28l.64-2.14a.82.82 0 0 0 .12-.2v2.34h-.71z" class="b"/>
  <path d="M844.98 48.27l-1.21.83 1.21-.83zm1.2-.79l-1.21.81z" class="a"/>
  <path d="M793.16 196.74l1.26-1.56.36.72zm.89-2.01l.35-.44.19.31zm29.62-33.62l.42-.42zm-.4.41l.42-.43z" class="b"/>
  <path d="M792.49 142.73l.25-.56 4.18-2.43.4-.6.09.14c3.3-1.17 6.59-2.38 9.9-3.5a9.66 9.66 0 0 1 2.3-.2c-.62.25-1.24.48-1.85.75l-14.12 6.29z" class="a"/>
  <path d="M810.87 142.68l-9.64 1.53a5.06 5.06 0 0 1-.78 0c.16-.14.31-.38.48-.39 4.8-.42 9.6-.83 14.4-1.2.25 0 .51.27.77.41-.26 0-.52.07-.79.07h-4.4zm25.55-38.06l-.52-.17c.24-.18.46-.49.72-.52 1.59-.21 3.18-.36 4.78-.51.06 0 .14.19.22.3z" class="f"/>
  <path d="M787.27 149.94l1.59-1.23.59.07-1.4 1.11z" class="b"/>
  <path d="M799.45 144.59a3.72 3.72 0 0 1-.75.23c-.06 0-.15-.2-.23-.3a6.26 6.26 0 0 1 .73-.14c.06-.01.13.11.25.21zm-10 4.22l-.59-.07 1.65-.79zm1.04-.87a2.08 2.08 0 0 1 0-.35l.82-.44.74-.08.05.06zm2.41-1.21l1.19-.4-1.21.4zm2-.79l.82-.34a1.12 1.12 0 0 1 .09.17l-.93.15z" class="f"/>
  <path d="M792.05 147.11l.82-.38-.75.45zm2-.78l.81-.39-.79.4z" class="f"/>
  <path d="M806.49 113.47c.93-6 1.91-12 2.77-18.08.32-2.28.33-4.59.52-6.89a2.81 2.81 0 0 1 .36-.82c.11.25.34.52.31.76q-1.9 13.17-3.87 26.33l-.09-.08zm-6.82 9.24c.42-5.74.83-11.49 1.27-17.24a10.12 10.12 0 0 1 .29-1.39c.16.47.5.94.46 1.39-.55 6.13-1.15 12.25-1.73 18.37l-.29-1.13z" class="e"/>
  <path d="M812.1 76.67l4.82-10.43-2 7.34c-.15 0-.41-.07-.45 0-.84 1.41-1.67 2.84-2.5 4.26.08-.4.08-.79.13-1.17z" class="c"/>
  <path d="M799.67 122.71l.29 1.13-.38 2 .09.06-.43.86-1.77 4.59-.17.58h-.41l.22-1.49 2.56-7.73zm4.82-2.01l-2.4 4 3.27-8.41.38.93-.94 3h.09zm7.61-44.03c0 .38 0 .77-.08 1.16-.2.88-.39 1.78-.61 2.66-.17.66-.39 1.31-.58 2a7.1 7.1 0 0 1-.26-2.16 34 34 0 0 1 1.13-3.64z" class="f"/>
  <path d="M805.74 117.24l-.38-.93.67-1.64h.46l.09.08z" class="e"/>
  <path d="M801.29 125.92l-.06-.42.87-.81zm5.2-11.23h-.46l.46-1.2zm17.23-17.22l-.41.83zm-.8 1.78v-.93a.45.45 0 0 1 .36-.05z" class="f"/>
  <path d="M771.68 171.56l.23-.57 2.59-1.83.4-.4v.08c3.11-1.32 6.22-2.65 9.34-3.94.23-.09.58.09.87.14-.11.15-.19.36-.33.43q-6.52 3.06-13.1 6.09z" class="a"/>
  <path d="M798.93 161.48c-3.76 1.05-7.51 2.11-11.27 3.13-.25.06-.58-.16-.87-.25a4 4 0 0 1 .85-.53c2-.64 4-1.24 6-1.86z" class="f"/>
  <path d="M798.93 161.48l-5.25.49 7.29-1.57-.12.53z" class="g"/>
  <path d="M797.24 182.64l-4 1.09c-2.58 0-5.15-.06-7.72-.17a8.61 8.61 0 0 1-2-.5l2.06-.28 7.5.32 1.31-.27a1.36 1.36 0 0 1 .39-.08l1.21-.31a2.36 2.36 0 0 1 .38-.1z" class="e"/>
  <path d="M767.65 189.11l-1.15-.34c2.09-.52 4.17-1 6.27-1.53a2 2 0 0 1 .75.13c-.22.18-.42.47-.67.53-1.73.43-3.47.81-5.2 1.21z" class="f"/>
  <path d="M793.17 183.1l-7.5-.32h7.68a1.67 1.67 0 0 1-.18.32z" class="c"/>
  <path d="M775.25 182.45h4.5v.23h-4.57z" class="b"/>
  <path d="M797.24 182.64l-.78-.3 2.45-.78zm-1.19-.2l-1.21.31zm-2.88.66a1.67 1.67 0 0 0 .18-.28h1.13z" class="f"/>
  <path d="M786.88 189.96l.41-.29.09.15-.49.15z" class="c"/>
  <path d="M771.96 209.07l2.06.29c-.58.25-1.14.53-1.73.73l-18.2 6a1.57 1.57 0 0 1-.67-.06c.16-.42.21-1.06.52-1.23 2.56-1.46 5-3.27 7.8-4.1 3.31-1.01 6.9-1.14 10.22-1.63z" class="d"/>
  <path d="M768.05 208.81l-11.54 1.22-.12-.1c4.17-.64 8.33-1.28 12.51-1.89.13 0 .31.32.47.49l-.54.25z" class="f"/>
  <path d="M782.1 198.81l8-1.6z" class="d"/>
  <path d="M751.99 212.32l4.44-2.39.12.1-4.35 2.49z" class="a"/>
  <path d="M776.88 199.17l3.58-.3z" class="d"/>
  <path d="M758.42 215.93l3.11-.73s0 .2.08.3l-3.13.52z" class="f"/>
  <path d="M758.48 216.02l-1.95.68-.13-.22 2-.54z" class="f"/>
  <path d="M768.05 208.81h.78z" class="d"/>
  <path d="M752.2 212.52l-.42.4-.19-.21.4-.38z" class="a"/>
  <path d="M817.29 108.32a1.77 1.77 0 0 1-.15-.31l.11-.14.04.45z" class="g"/>
  <path d="M766.05 172.58l-.7-.64v-2.16l.26-.61.27-2.09c0-1.42 0-2.84.05-4.25l-.06-.91s.08-.09.08-.12a1.12 1.12 0 0 0-.11-.25l-.1-1.59h.31l.5 1.58v6.39z" class="a"/>
  <path d="M762.95 139.44q1 5.64 1.91 11.29l-.73-.22-1.63-10.22z" class="f"/>
  <path d="M762.95 139.44l-.44.85h-.11l-.29-1.38c0-.48-.09-1-.13-1.46s-.21-1.05-.31-1.57c0-.81-.07-1.62-.1-2.43v-3.58l.19-2.39.82.85c.08 3.73.22 7.42.37 11.11z" class="b"/>
  <path d="M764.86 150.73l1.12 7.43h-.65l-.92-6.64.46-.78z" class="f"/>
  <path d="M765.33 158.15h.65v1.81h-.31z" class="d"/>
  <path d="M765.9 162.81c0 1.41 0 2.83-.05 4.25l.05-4.25z" class="f"/>
  <path d="M761.67 135.92l.31 1.57-.31-1.57zm3.2 14.81l-.46.78-.27-1zm-2.76-11.78l.29 1.38zm-.58-6.6v1.14c.02-.38.01-.76 0-1.14zm4.05 36.82l-.26.61.26-.61z" class="d"/>
  <path d="M765.81 161.55a1.12 1.12 0 0 1 .11.25s0 .08-.08.12a.4.4 0 0 1-.03-.37z" class="f"/>
  <path d="M766.5 167.94v-6.39 6.39z" class="c"/>
  <path d="M867.05 88.37s-.08.12-.14.14l-2.47.81 2.36-1.22a2.16 2.16 0 0 0 .25.27zm1-.71s0 .07-.06.09a.48.48 0 0 1-.12 0l.07-.22z" class="e"/>
  <path d="M858.95 90.28l.15.08-.15-.08z" class="g"/>
  <path d="M866.8 88.1l.49-.11-.24.38a2.16 2.16 0 0 1-.25-.27zm-88.63 10.18h.71l-.19.84-.59-.44z" class="e"/>
  <path d="M780.89 151.92l-.09.74-.63.25zm11.26-23.49c-.54-8.76-1.1-17.52-1.61-26.29a7 7 0 0 1 .4-1.86c.62 8.35 1.28 16.71 1.83 25.06a11.78 11.78 0 0 1-.62 3.09z" class="c"/>
  <path d="M790.46 136.68l-.46.83z" class="g"/>
  <path d="M788.51 142.74l-.24.17c0-.09.09-.18.13-.28z" class="c"/>
  <path d="M790.87 136.29l-.43.41zm6.45 2.85l-.4.6z" class="g"/>
  <path d="M862.21 68.68a14.57 14.57 0 0 1-1.68 2.5c-2.3 2.27-4.69 4.42-7 6.64l.34.5-3.45.67a24.65 24.65 0 0 1 2.33-2.55c3.1-2.63 6.3-5.18 9.46-7.76z" class="c"/>
  <path d="M865.89 64.37a10.58 10.58 0 0 0-1.87.75c-.28.17-.58.8-.47 1s.68.39 1 .57l-2.27 1.68-.91-.87 3.94-5.23.7 1.16c.04.3-.06.62-.12.94zm-10.25 13.86l.42-.09z" class="a"/>
  <path d="M804.49 120.7l.4-.42z" class="g"/>
  <path d="M786.14 150.38l.46-.32.7-.14-1.23.82c-.02-.12.04-.24.07-.36z" class="b"/>
  <path d="M774.9 168.81l-.4.4c.14-.18.27-.31.4-.4z" class="d"/>
  <path d="M791.32 147.15l-.82.44zm7.92-20.4l.43-.86-.43.86z" class="g"/>
  <path d="M861.8 64.31l-.62.24.34-.53a1.92 1.92 0 0 1 .28.29z" class="a"/>
  <path d="M868.17 65.95v.56h-3.22a.27.27 0 0 1 .16-.17zm2.65.38l1.75.67z" class="f"/>
  <path d="M857.81 76.31a1.12 1.12 0 0 0 0 .32l-.13-.26z" class="g"/>
  <path d="M897.05 35.46l-.61.25.39-.44z" class="a"/>
  <path d="M896.8 35.27l.4-.42.28.28-.46.33zm-16.63 13.37h1.24l-1.26 3.58v.51l-.83.71-.3-2z" class="a"/>
  <path d="M879.05 51.48l.3 2h-.3v-2z" class="e"/>
  <path d="M876.81 48.89l-.6.51.28-.82z" class="b"/>
  <path d="M896.29 41.96l-.62.15.44-.35z" class="a"/>
  <path d="M879.35 43.03l4.4-6.42-.88 1.5-3.1 4.44z" class="g"/>
  <path d="M879.79 42.63l3.1-4.44-.63 3.34-.05-.07-.41.42-.41.41-.42.42z" class="e"/>
  <path d="M877.67 43.81l.92.47-1.89 2.47z" class="d"/>
  <path d="M881.8 41.88l.41-.42zm-.4.4l.41-.41zm-.35.41l.42-.42z" class="b"/>
  <path d="M832.28 128.91c-.07 0-.12.09-.16.08s-.08-.06-.13-.09z" class="a"/>
  <path d="M882.91 38.15l.88-1.5.69-.47c-.53.63-1.05 1.31-1.57 1.97z" class="e"/>
  <path d="M869.67 38.14l.66-.19-.33.51z" class="c"/>
  <path d="M867.38 42.67l.44-.82z" class="d"/>
  <path d="M893.21 47.81l.54.1-.09.19-.48-.27z" class="a"/>
  <path d="M817.31 65.87v-.75c.03.25.01.5 0 .75zm-.41.4l.43-.42z" class="c"/>
  <path d="M793.37 83.49l-.45.81z" class="d"/>
</svg>
