<svg xmlns="http://www.w3.org/2000/svg" viewBox="0 0 380.68 151.4"><defs><style>.a{isolation:isolate;}.b{fill:#c0362c;}.c{fill:#fff;}.d{fill:#ffdd15;}.d,.e,.f{stroke:#231f20;stroke-miterlimit:10;stroke-width:0.5px;mix-blend-mode:multiply;}.e{fill:#eb008b;}.f{fill:#00adee;}</style></defs><title>gaunt</title><g class="a"><path d="M63.15,118.79c0,16.5-6.75,19.79-14.7,19.79-10.2,0-14-6.9-14-14.7v-.59h2.55v.29c0,6.9,3.3,12.75,11.4,12.75,11.1,0,12.15-8.25,12.15-19.34v-16.8c-.9,6.45-4.65,11.69-12.45,11.69-7.5,0-13.65-3.89-13.65-20.69V56.39c0-13,3.9-21.3,14.4-21.3,8.85,0,11.1,6.15,12,10.95,0-2.4,0-4.5.15-9.75h2.4c0,2.4-.3,10.8-.3,20.55Zm-26.1-62.1V91c0,12.3,3.6,18.6,11.25,18.6,11,0,12.45-13.35,12.45-28.5V62.54c0-12-1.2-25.2-12-25.2C41.55,37.34,37.05,42,37.05,56.69Z" transform="translate(-34.5 -1.08)"/><path d="M114.15,101.69c0,3.3.15,8,.3,9.9H112.2a60.72,60.72,0,0,1-.45-9.6c-2.1,6.6-5.25,10.8-12.75,10.8-10,0-13.5-9.3-13.5-19.5v-.15c0-17,8.4-23.85,20.4-23.85h5.7V50.39c0-5-1-13-10.2-13-10.5,0-10.8,9.45-10.8,15.6V54H88.05V52.94c0-7.65,1.2-17.85,13.35-17.85,10.8,0,12.75,8.25,12.75,15.3ZM111.6,71.54h-6c-13.8,0-17.55,10.2-17.55,21.6v.15c0,9.6,3.3,17.25,11.1,17.25,10.35,0,12.45-11.4,12.45-24.45Z" transform="translate(-34.5 -1.08)"/><path d="M169.05,94c0,7.5,0,14.4.15,17.55h-2.4a101.9,101.9,0,0,1-.3-11c-1.65,7.65-5.1,12.15-12.9,12.15-6.9,0-12.9-2.4-12.9-17.7V36.29h2.55v58.2c0,10.2,2.55,16.05,10.2,16.05,8.25,0,13.05-5.7,13.05-27.15V36.29h2.55Z" transform="translate(-34.5 -1.08)"/><path d="M195.45,57.74c0-14.7,0-18.3-.15-21.45h2.55c.15,1.35.15,6.15.15,10.05,1.35-6,5.55-11.25,13.2-11.25,6.45,0,13.2,2.4,13.2,18.75v57.75h-2.55V55c0-12.45-3.3-17.55-10.8-17.55-10.8,0-13.05,11.1-13.05,25.2v48.9h-2.55Z" transform="translate(-34.5 -1.08)"/><path d="M242,36.29h9.6v-19h2.55V36.29h11.1v2.25H254.1v62.85c0,3.45.45,8.85,6.15,8.85a16.18,16.18,0,0,0,4.5-.6v2.1a12.12,12.12,0,0,1-4.65.75c-3.6,0-8.55-1-8.55-10.5V38.54H242Z" transform="translate(-34.5 -1.08)"/><path d="M314.4,61.94c0-11.4-.15-20.1-.3-25.65h2.4c.15,1.35.3,4.35.3,13.5,1.95-8.7,8.1-14.25,14.7-14.7v2.55C321.45,39.44,317,48.29,317,64.79v46.8H314.4Z" transform="translate(-34.5 -1.08)"/><path d="M349.79,91.94v1.65c0,7.8,1.36,17,11.25,17,8.55,0,11.7-5.4,11.7-16.2,0-9.75-2.1-14.55-11.55-21.45-9-6.6-12.59-10.8-12.59-21.45,0-8.25,2.85-16.35,13-16.35,11.85,0,12.6,10.8,12.6,17.4v2.1h-2.55v-2c0-5.4-.3-15.3-10.19-15.3-7.35,0-10.35,5.55-10.35,13.95,0,9.3,2.39,12.75,10.79,18.9,9.75,7.2,13.35,12.15,13.35,24,0,11.1-3.3,18.6-14.25,18.6-12.59,0-13.79-11.85-13.79-19.2V91.94Z" transform="translate(-34.5 -1.08)"/><path class="b" d="M75.84,125H79l2.39,11.07c.29,1.38.56,2.77.8,4.16s.46,2.84.66,4.37c0-.2,0-.36.05-.47s0-.19,0-.24l.51-3.11.46-2.95.41-2L86.4,125h3.17l2.49,27.14h-3.5L88,142.94c0-.47,0-.88-.06-1.22s0-.62,0-.84l-.16-3.64-.08-3.34s0-.07,0-.15,0-.18,0-.31l-.09.55c-.09.64-.18,1.21-.25,1.69s-.15.88-.2,1.21l-.46,2.48-.18.93-2.28,11.85H81.66l-2.15-10.23q-.44-2-.78-4.11c-.23-1.39-.44-2.84-.62-4.37l-1.06,18.71H73.61Z" transform="translate(-34.5 -1.08)"/><path class="b" d="M97.68,125h3.65v27.14H97.68Z" transform="translate(-34.5 -1.08)"/><path class="b" d="M108.11,125h3.41l3.64,10.82a98.69,98.69,0,0,1,2.79,9.79q-.44-3.13-.65-5.69t-.21-4.8V125h3.68v27.14h-3.43l-4.1-12.22c-.37-1.14-.73-2.3-1.06-3.5s-.64-2.45-.92-3.76c0-.16-.06-.36-.12-.6l-.18-.81c0,.31.06.57.09.79s0,.4,0,.55l.19,2.76.2,3.36c0,.18,0,.41,0,.68s0,.58,0,.92l.19,11.83h-3.6Z" transform="translate(-34.5 -1.08)"/><path class="b" d="M127.54,125h3.66v27.14h-3.66Z" transform="translate(-34.5 -1.08)"/><path class="b" d="M139.26,125h3.13l2.39,11.07c.29,1.38.56,2.77.8,4.16s.46,2.84.66,4.37c0-.2,0-.36,0-.47s0-.19,0-.24l.51-3.11.46-2.95.4-2L149.82,125H153l2.49,27.14H152l-.61-9.21c0-.47-.05-.88-.06-1.22s0-.62,0-.84l-.16-3.64L151,133.9v-.15c0-.08,0-.18,0-.31l-.09.55c-.09.64-.18,1.21-.25,1.69s-.15.88-.21,1.21l-.45,2.48-.18.93-2.28,11.85h-2.46l-2.15-10.23q-.44-2-.78-4.11c-.23-1.39-.44-2.84-.63-4.37l-1.05,18.71H137Z" transform="translate(-34.5 -1.08)"/><path class="b" d="M165,125h2.85l5.82,27.14H170l-1-5.29h-5.38l-1,5.29h-3.51Zm3.5,19-.81-4.33c-.54-2.94-1-6.08-1.31-9.42-.17,1.63-.38,3.28-.64,4.95s-.56,3.44-.91,5.31l-.67,3.49Z" transform="translate(-34.5 -1.08)"/><path class="b" d="M178.37,125H182v24h6v3.1h-9.63Z" transform="translate(-34.5 -1.08)"/><path class="b" d="M192.88,125h3.65v27.14h-3.65Z" transform="translate(-34.5 -1.08)"/><path class="b" d="M212.36,125.57v3.57a5.32,5.32,0,0,0-3-1.2,3,3,0,0,0-2.36,1,3.61,3.61,0,0,0-.91,2.58,4.42,4.42,0,0,0,.65,2.45,11.2,11.2,0,0,0,1.09,1.4c.51.58,1.17,1.27,2,2.08a16.21,16.21,0,0,1,3,3.92,8.61,8.61,0,0,1,.81,3.92,7.61,7.61,0,0,1-1.77,5.18,5.83,5.83,0,0,1-4.56,2,6.37,6.37,0,0,1-4-1.28v-3.62a6.22,6.22,0,0,0,3.55,1.42,2.9,2.9,0,0,0,2.34-1,4.06,4.06,0,0,0,.85-2.7,5.46,5.46,0,0,0-.65-2.66,12.63,12.63,0,0,0-.94-1.29,20.06,20.06,0,0,0-1.49-1.62c-.93-.92-1.69-1.73-2.3-2.43a11.69,11.69,0,0,1-1.36-1.85,8.1,8.1,0,0,1-.84-3.9,7.32,7.32,0,0,1,1.65-5,5.69,5.69,0,0,1,4.48-1.88A7.9,7.9,0,0,1,212.36,125.57Z" transform="translate(-34.5 -1.08)"/><path class="b" d="M217.61,125h11.9v3.2h-4.1v23.94h-3.58V128.21h-4.22Z" transform="translate(-34.5 -1.08)"/><path class="b" d="M244.17,125H249a6.13,6.13,0,0,1,4.45,1.42q1.84,1.84,1.85,5.64a9.7,9.7,0,0,1-1,4.69,4.23,4.23,0,0,1-2.79,2.19l5,13.2H252.8l-5-13.29v13.29h-3.65Zm3.65,12a3.88,3.88,0,0,0,3-1,4.93,4.93,0,0,0,.88-3.32,10.38,10.38,0,0,0-.19-2.16,3.75,3.75,0,0,0-.58-1.46,2.28,2.28,0,0,0-1-.82,3.69,3.69,0,0,0-1.48-.27h-.62Z" transform="translate(-34.5 -1.08)"/><path class="b" d="M261.49,125h3.59v19.17a9.52,9.52,0,0,0,.52,3.91,2.26,2.26,0,0,0,2.15,1,2.29,2.29,0,0,0,2.11-.84,7.69,7.69,0,0,0,.52-3.5V125H274v19.7q0,4.42-1.35,6a6.38,6.38,0,0,1-4.94,1.77q-3.66,0-5.15-2.28c-.7-1-1-3-1-6Z" transform="translate(-34.5 -1.08)"/><path class="b" d="M289.8,125.57v3.57a5.37,5.37,0,0,0-3-1.2,3,3,0,0,0-2.35,1,3.62,3.62,0,0,0-.92,2.58,4.5,4.5,0,0,0,.65,2.45,11.47,11.47,0,0,0,1.1,1.4c.51.58,1.17,1.27,2,2.08a16.21,16.21,0,0,1,3,3.92,8.61,8.61,0,0,1,.81,3.92,7.56,7.56,0,0,1-1.78,5.18,5.81,5.81,0,0,1-4.55,2,6.33,6.33,0,0,1-4-1.28v-3.62a6.19,6.19,0,0,0,3.55,1.42,2.9,2.9,0,0,0,2.34-1,4.06,4.06,0,0,0,.84-2.7,5.35,5.35,0,0,0-.65-2.66,11,11,0,0,0-.93-1.29c-.4-.48-.9-1-1.49-1.62q-1.4-1.38-2.31-2.43a11,11,0,0,1-1.35-1.85,8.1,8.1,0,0,1-.84-3.9,7.32,7.32,0,0,1,1.65-5,5.67,5.67,0,0,1,4.48-1.88A8,8,0,0,1,289.8,125.57Z" transform="translate(-34.5 -1.08)"/><path class="b" d="M295,125H307v3.2h-4.1v23.94h-3.59V128.21H295Z" transform="translate(-34.5 -1.08)"/><path class="b" d="M321.6,125h3.66v10.61h5.36V125h3.66v27.14h-3.66V138.72h-5.36v13.43H321.6Z" transform="translate(-34.5 -1.08)"/><path class="b" d="M338.89,125h11.9v3.2H346.7v23.94h-3.59V128.21h-4.22Z" transform="translate(-34.5 -1.08)"/><path class="b" d="M353.24,125h11.9v3.2h-4.09v23.94h-3.59V128.21h-4.22Z" transform="translate(-34.5 -1.08)"/><path class="b" d="M369.76,125h4.81q3.48,0,5.06,1.75c1.06,1.19,1.59,3.06,1.59,5.63q0,5.42-3.18,7a11.49,11.49,0,0,1-4.63.73v12h-3.65Zm3.65,12a4.22,4.22,0,0,0,3.13-.92,4.78,4.78,0,0,0,.88-3.3,6,6,0,0,0-.84-3.55,3.12,3.12,0,0,0-2.66-1.13h-.51Z" transform="translate(-34.5 -1.08)"/><path class="b" d="M287.19,100.49s6.54-2.9,8.32,3.56c0,0,1.87,7.54-5.37,8C290.14,112,280.91,110.23,287.19,100.49Z" transform="translate(-34.5 -1.08)"/><path class="c" d="M290.47,103.28c0,1.68-1,3-2.2,3s-2.21-1.36-2.21-3,1-3,2.21-3S290.47,101.6,290.47,103.28Z" transform="translate(-34.5 -1.08)"/><circle class="d" cx="368.36" cy="25.52" r="12.07"/><circle class="e" cx="353.63" cy="25.52" r="12.07"/><circle class="f" cx="360.74" cy="12.32" r="12.07"/></g></svg>